<?xml version="1.0" encoding="UTF-8" standalone="no"?>
<!DOCTYPE svg PUBLIC "-//W3C//DTD SVG 1.1//EN"
 "http://www.w3.org/Graphics/SVG/1.1/DTD/svg11.dtd">
<!-- Generated by graphviz version 2.43.0 (0)
 -->
<!-- Title: main Pages: 1 -->
<!--zoomable 745 -->
<svg id="main" version="1.1" xmlns="http://www.w3.org/2000/svg" xmlns:xlink="http://www.w3.org/1999/xlink" xml:space="preserve" onload="init(evt)">
<style type="text/css"><![CDATA[
.edge:hover path { stroke: red; }
.edge:hover polygon { stroke: red; fill: red; }
]]></style>
<script type="text/javascript"><![CDATA[
var edges = document.getElementsByTagName('g');
if (edges && edges.length) {
  for (var i=0;i<edges.length;i++) {
    if (edges[i].id.substr(0,4)=='edge') {
      edges[i].setAttribute('class','edge');
    }
  }
}
]]></script>
        <defs>
                <circle id="rim" cx="0" cy="0" r="7"/>
                <circle id="rim2" cx="0" cy="0" r="3.5"/>
                <g id="zoomPlus">
                        <use xlink:href="#rim" fill="#404040">
                                <set attributeName="fill" to="#808080" begin="zoomplus.mouseover" end="zoomplus.mouseout"/>
                        </use>
                        <path d="M-4,0h8M0,-4v8" fill="none" stroke="white" stroke-width="1.5" pointer-events="none"/>
                </g>
                <g id="zoomMin">
                        <use xlink:href="#rim" fill="#404040">
                                <set attributeName="fill" to="#808080" begin="zoomminus.mouseover" end="zoomminus.mouseout"/>
                        </use>
                        <path d="M-4,0h8" fill="none" stroke="white" stroke-width="1.5" pointer-events="none"/>
                </g>
                <g id="dirArrow">
                        <path fill="none" stroke="white" stroke-width="1.5" d="M0,-3.0v7 M-2.5,-0.5L0,-3.0L2.5,-0.5"/>
                </g>
               <g id="resetDef">
                       <use xlink:href="#rim2" fill="#404040">
                               <set attributeName="fill" to="#808080" begin="reset.mouseover" end="reset.mouseout"/>
                       </use>
               </g>
        </defs>

<script type="text/javascript">
var viewWidth = 794;
var viewHeight = 745;
var sectionId = 'dynsection-4';
</script>
<script xlink:href="../../svgpan.js"/>
<svg id="graph" class="graph">
<g id="viewport">
<title>main</title>
<polygon fill="white" stroke="transparent" points="-4,4 -4,-741.4 790,-741.4 790,4 -4,4"/>
<!-- Node1 -->
<g id="node1" class="node">
<title>Node1</title>
<g id="a_node1"><a xlink:title=" ">
<polygon fill="#bfbfbf" stroke="black" points="0,-304.5 0,-323.5 41,-323.5 41,-304.5 0,-304.5"/>
<text text-anchor="middle" x="20.5" y="-311.5" font-family="Helvetica,sans-Serif" font-size="10.00">main</text>
</a>
</g>
</g>
<!-- Node2 -->
<g id="node2" class="node">
<title>Node2</title>
<g id="a_node2"><a xlink:href="../../d8/dbe/classCalculator.html#a8fd7d02f69969809b14c670bf43c07d3" target="_top" xlink:title=" ">
<polygon fill="white" stroke="black" points="77,-608.5 77,-627.5 224,-627.5 224,-608.5 77,-608.5"/>
<text text-anchor="middle" x="150.5" y="-615.5" font-family="Helvetica,sans-Serif" font-size="10.00">Calculator::appendNumber</text>
</a>
</g>
</g>
<!-- Node1&#45;&gt;Node2 -->
<g id="edge1" class="edge">
<title>Node1&#45;&gt;Node2</title>
<path fill="none" stroke="midnightblue" d="M22.14,-323.78C25.26,-368.41 40.18,-552.3 77,-594 80.42,-597.88 84.49,-601.13 88.91,-603.86"/>
<polygon fill="midnightblue" stroke="midnightblue" points="87.32,-606.97 97.81,-608.48 90.55,-600.76 87.32,-606.97"/>
</g>
<!-- Node3 -->
<g id="node3" class="node">
<title>Node3</title>
<g id="a_node3"><a xlink:href="../../d8/dbe/classCalculator.html#a9e304d79b58ced8a6e71c5d5dea7c1b7" target="_top" xlink:title=" ">
<polygon fill="white" stroke="black" points="271.5,-589.5 271.5,-608.5 387.5,-608.5 387.5,-589.5 271.5,-589.5"/>
<text text-anchor="middle" x="329.5" y="-596.5" font-family="Helvetica,sans-Serif" font-size="10.00">Calculator::calculate</text>
</a>
</g>
</g>
<!-- Node1&#45;&gt;Node3 -->
<g id="edge2" class="edge">
<title>Node1&#45;&gt;Node3</title>
<path fill="none" stroke="midnightblue" d="M22.24,-323.59C25.64,-364.96 41.14,-527.6 77,-561 103.03,-585.25 195.93,-594.03 261.21,-597.2"/>
<polygon fill="midnightblue" stroke="midnightblue" points="261.28,-600.71 271.43,-597.66 261.6,-593.72 261.28,-600.71"/>
</g>
<!-- Node11 -->
<g id="node11" class="node">
<title>Node11</title>
<g id="a_node11"><a xlink:href="../../d8/dbe/classCalculator.html#ac4a03e4c7d48d4d9bbb3d1c3708dd01f" target="_top" xlink:title=" ">
<polygon fill="white" stroke="black" points="102.5,-114.5 102.5,-133.5 198.5,-133.5 198.5,-114.5 102.5,-114.5"/>
<text text-anchor="middle" x="150.5" y="-121.5" font-family="Helvetica,sans-Serif" font-size="10.00">Calculator::clear</text>
</a>
</g>
</g>
<!-- Node1&#45;&gt;Node11 -->
<g id="edge19" class="edge">
<title>Node1&#45;&gt;Node11</title>
<path fill="none" stroke="midnightblue" d="M21.85,-304.21C23.41,-275.9 31.81,-193.06 77,-148 81.56,-143.45 87,-139.77 92.82,-136.78"/>
<polygon fill="midnightblue" stroke="midnightblue" points="94.47,-139.88 102.21,-132.64 91.64,-133.47 94.47,-139.88"/>
</g>
<!-- Node12 -->
<g id="node12" class="node">
<title>Node12</title>
<g id="a_node12"><a xlink:href="../../d8/dbe/classCalculator.html#a37c0d80307a75c1b9425d675407e7914" target="_top" xlink:title="Calculate cosine in radians.">
<polygon fill="white" stroke="black" points="467.5,-266.5 467.5,-285.5 556.5,-285.5 556.5,-266.5 467.5,-266.5"/>
<text text-anchor="middle" x="512" y="-273.5" font-family="Helvetica,sans-Serif" font-size="10.00">Calculator::cos</text>
</a>
</g>
</g>
<!-- Node1&#45;&gt;Node12 -->
<g id="edge20" class="edge">
<title>Node1&#45;&gt;Node12</title>
<path fill="none" stroke="midnightblue" d="M41.3,-312.46C111.38,-307.02 349.32,-288.55 457.13,-280.18"/>
<polygon fill="midnightblue" stroke="midnightblue" points="457.45,-283.67 467.14,-279.4 456.9,-276.69 457.45,-283.67"/>
</g>
<!-- Node14 -->
<g id="node14" class="node">
<title>Node14</title>
<g id="a_node14"><a xlink:href="../../df/d0a/main_8cpp.html#a654e8f4515d95090254e0d156d3007e5" target="_top" xlink:title=" ">
<polygon fill="white" stroke="black" points="107,-76.5 107,-95.5 194,-95.5 194,-76.5 107,-76.5"/>
<text text-anchor="middle" x="150.5" y="-83.5" font-family="Helvetica,sans-Serif" font-size="10.00">displayHistory</text>
</a>
</g>
</g>
<!-- Node1&#45;&gt;Node14 -->
<g id="edge24" class="edge">
<title>Node1&#45;&gt;Node14</title>
<path fill="none" stroke="midnightblue" d="M20.93,-304.48C19.54,-271.68 19.57,-162.25 77,-105 82.64,-99.38 89.72,-95.36 97.24,-92.5"/>
<polygon fill="midnightblue" stroke="midnightblue" points="98.42,-95.8 106.91,-89.46 96.32,-89.12 98.42,-95.8"/>
</g>
<!-- Node16 -->
<g id="node16" class="node">
<title>Node16</title>
<g id="a_node16"><a xlink:href="../../df/d0a/main_8cpp.html#a59c2926dd9b0968badf463aaf4f91422" target="_top" xlink:title=" ">
<polygon fill="white" stroke="black" points="111,-38.5 111,-57.5 190,-57.5 190,-38.5 111,-38.5"/>
<text text-anchor="middle" x="150.5" y="-45.5" font-family="Helvetica,sans-Serif" font-size="10.00">displayMenu</text>
</a>
</g>
</g>
<!-- Node1&#45;&gt;Node16 -->
<g id="edge26" class="edge">
<title>Node1&#45;&gt;Node16</title>
<path fill="none" stroke="midnightblue" d="M22.36,-304.23C26.19,-262.79 43.04,-102.18 77,-67 83.5,-60.26 92.08,-55.81 101.05,-52.89"/>
<polygon fill="midnightblue" stroke="midnightblue" points="102.09,-56.24 110.86,-50.29 100.3,-49.47 102.09,-56.24"/>
</g>
<!-- Node17 -->
<g id="node17" class="node">
<title>Node17</title>
<g id="a_node17"><a xlink:href="../../d8/dbe/classCalculator.html#a6643e5d1f7630f7c240f8828deb6e6f3" target="_top" xlink:title=" ">
<polygon fill="white" stroke="black" points="78,-0.5 78,-19.5 223,-19.5 223,-0.5 78,-0.5"/>
<text text-anchor="middle" x="150.5" y="-7.5" font-family="Helvetica,sans-Serif" font-size="10.00">Calculator::getDisplayText</text>
</a>
</g>
</g>
<!-- Node1&#45;&gt;Node17 -->
<g id="edge27" class="edge">
<title>Node1&#45;&gt;Node17</title>
<path fill="none" stroke="midnightblue" d="M22.04,-304.29C24.73,-259.17 38.2,-70.36 77,-29 78.22,-27.7 79.53,-26.48 80.89,-25.34"/>
<polygon fill="midnightblue" stroke="midnightblue" points="83.01,-28.13 89.36,-19.65 79.11,-22.32 83.01,-28.13"/>
</g>
<!-- Node18 -->
<g id="node18" class="node">
<title>Node18</title>
<g id="a_node18"><a xlink:href="../../d8/dbe/classCalculator.html#a5e4112cc094703343ecd51baf48a4549" target="_top" xlink:title="Calculate the natural logarithm.">
<polygon fill="white" stroke="black" points="471.5,-342.5 471.5,-361.5 552.5,-361.5 552.5,-342.5 471.5,-342.5"/>
<text text-anchor="middle" x="512" y="-349.5" font-family="Helvetica,sans-Serif" font-size="10.00">Calculator::ln</text>
</a>
</g>
</g>
<!-- Node1&#45;&gt;Node18 -->
<g id="edge28" class="edge">
<title>Node1&#45;&gt;Node18</title>
<path fill="none" stroke="midnightblue" d="M41.09,-319.92C51.63,-322.86 64.92,-326.16 77,-328 214.79,-348.99 379.68,-352.19 460.83,-352.34"/>
<polygon fill="midnightblue" stroke="midnightblue" points="461.24,-355.84 471.24,-352.34 461.25,-348.84 461.24,-355.84"/>
</g>
<!-- Node19 -->
<g id="node19" class="node">
<title>Node19</title>
<g id="a_node19"><a xlink:href="../../d8/dbe/classCalculator.html#a4e60d98521a5b1e5302980919d1fcc9c" target="_top" xlink:title="Add current value to memory.">
<polygon fill="white" stroke="black" points="446,-304.5 446,-323.5 578,-323.5 578,-304.5 446,-304.5"/>
<text text-anchor="middle" x="512" y="-311.5" font-family="Helvetica,sans-Serif" font-size="10.00">Calculator::memoryAdd</text>
</a>
</g>
</g>
<!-- Node1&#45;&gt;Node19 -->
<g id="edge31" class="edge">
<title>Node1&#45;&gt;Node19</title>
<path fill="none" stroke="midnightblue" d="M41.3,-314C107.01,-314 320.29,-314 435.5,-314"/>
<polygon fill="midnightblue" stroke="midnightblue" points="435.66,-317.5 445.66,-314 435.66,-310.5 435.66,-317.5"/>
</g>
<!-- Node20 -->
<g id="node20" class="node">
<title>Node20</title>
<g id="a_node20"><a xlink:href="../../d8/dbe/classCalculator.html#a7a698a9016330e469b73d97856de275f" target="_top" xlink:title="Clear memory.">
<polygon fill="white" stroke="black" points="260,-228.5 260,-247.5 399,-247.5 399,-228.5 260,-228.5"/>
<text text-anchor="middle" x="329.5" y="-235.5" font-family="Helvetica,sans-Serif" font-size="10.00">Calculator::memoryClear</text>
</a>
</g>
</g>
<!-- Node1&#45;&gt;Node20 -->
<g id="edge34" class="edge">
<title>Node1&#45;&gt;Node20</title>
<path fill="none" stroke="midnightblue" d="M28.49,-304.32C37.95,-292.08 56.06,-271.45 77,-262 131.16,-237.55 198.42,-232.26 249.76,-232.69"/>
<polygon fill="midnightblue" stroke="midnightblue" points="249.75,-236.19 259.81,-232.85 249.86,-229.2 249.75,-236.19"/>
</g>
<!-- Node21 -->
<g id="node21" class="node">
<title>Node21</title>
<g id="a_node21"><a xlink:href="../../d8/dbe/classCalculator.html#a4ac1ee75a8995fdec32319722dac2ee8" target="_top" xlink:title="Recall value from memory.">
<polygon fill="white" stroke="black" points="440.5,-494.5 440.5,-513.5 583.5,-513.5 583.5,-494.5 440.5,-494.5"/>
<text text-anchor="middle" x="512" y="-501.5" font-family="Helvetica,sans-Serif" font-size="10.00">Calculator::memoryRecall</text>
</a>
</g>
</g>
<!-- Node1&#45;&gt;Node21 -->
<g id="edge36" class="edge">
<title>Node1&#45;&gt;Node21</title>
<path fill="none" stroke="midnightblue" d="M22.05,-323.63C24.1,-349.95 33.64,-423.46 77,-459 187.01,-549.15 369.12,-531.27 458.38,-515.33"/>
<polygon fill="midnightblue" stroke="midnightblue" points="459.08,-518.76 468.28,-513.5 457.81,-511.88 459.08,-518.76"/>
</g>
<!-- Node22 -->
<g id="node22" class="node">
<title>Node22</title>
<g id="a_node22"><a xlink:href="../../d8/dbe/classCalculator.html#af623864b6873f187d41b22440e1e25d3" target="_top" xlink:title="Store current value in memory.">
<polygon fill="white" stroke="black" points="442.5,-456.5 442.5,-475.5 581.5,-475.5 581.5,-456.5 442.5,-456.5"/>
<text text-anchor="middle" x="512" y="-463.5" font-family="Helvetica,sans-Serif" font-size="10.00">Calculator::memoryStore</text>
</a>
</g>
</g>
<!-- Node1&#45;&gt;Node22 -->
<g id="edge39" class="edge">
<title>Node1&#45;&gt;Node22</title>
<path fill="none" stroke="midnightblue" d="M23.77,-323.74C29.14,-344.39 44.64,-392.63 77,-416 186.79,-495.29 354.56,-488.3 446.02,-476.81"/>
<polygon fill="midnightblue" stroke="midnightblue" points="446.52,-480.27 455.98,-475.5 445.61,-473.33 446.52,-480.27"/>
</g>
<!-- Node23 -->
<g id="node23" class="node">
<title>Node23</title>
<g id="a_node23"><a xlink:href="../../d8/dbe/classCalculator.html#a81eb175a92c69c98dd2a83fb75edff2b" target="_top" xlink:title="Subtract current value from memory.">
<polygon fill="white" stroke="black" points="435,-418.5 435,-437.5 589,-437.5 589,-418.5 435,-418.5"/>
<text text-anchor="middle" x="512" y="-425.5" font-family="Helvetica,sans-Serif" font-size="10.00">Calculator::memorySubtract</text>
</a>
</g>
</g>
<!-- Node1&#45;&gt;Node23 -->
<g id="edge42" class="edge">
<title>Node1&#45;&gt;Node23</title>
<path fill="none" stroke="midnightblue" d="M26.79,-323.91C35.25,-338.66 53.3,-366.05 77,-379 185.88,-438.47 332.87,-441.94 424.77,-436.7"/>
<polygon fill="midnightblue" stroke="midnightblue" points="425.11,-440.18 434.87,-436.07 424.67,-433.2 425.11,-440.18"/>
</g>
<!-- Node24 -->
<g id="node24" class="node">
<title>Node24</title>
<g id="a_node24"><a xlink:href="../../d8/dbe/classCalculator.html#aecc0629ec1d4ce2c6fceb9b57c576386" target="_top" xlink:title=" ">
<polygon fill="white" stroke="black" points="83,-532.5 83,-551.5 218,-551.5 218,-532.5 83,-532.5"/>
<text text-anchor="middle" x="150.5" y="-539.5" font-family="Helvetica,sans-Serif" font-size="10.00">Calculator::setOperation</text>
</a>
</g>
</g>
<!-- Node1&#45;&gt;Node24 -->
<g id="edge45" class="edge">
<title>Node1&#45;&gt;Node24</title>
<path fill="none" stroke="midnightblue" d="M21.14,-323.61C20.47,-355.76 22.73,-460.71 77,-518 80.67,-521.87 84.97,-525.12 89.62,-527.84"/>
<polygon fill="midnightblue" stroke="midnightblue" points="88.4,-531.14 98.92,-532.46 91.52,-524.88 88.4,-531.14"/>
</g>
<!-- Node25 -->
<g id="node25" class="node">
<title>Node25</title>
<g id="a_node25"><a xlink:href="../../d8/dbe/classCalculator.html#a3e9c9f13f93ce365c30c8e6387718e91" target="_top" xlink:title="Calculate sine in radians.">
<polygon fill="white" stroke="black" points="469,-190.5 469,-209.5 555,-209.5 555,-190.5 469,-190.5"/>
<text text-anchor="middle" x="512" y="-197.5" font-family="Helvetica,sans-Serif" font-size="10.00">Calculator::sin</text>
</a>
</g>
</g>
<!-- Node1&#45;&gt;Node25 -->
<g id="edge47" class="edge">
<title>Node1&#45;&gt;Node25</title>
<path fill="none" stroke="midnightblue" d="M24.5,-304.5C30.83,-286.18 47.49,-246.27 77,-229 198.34,-157.98 372.74,-174.92 458.84,-189.45"/>
<polygon fill="midnightblue" stroke="midnightblue" points="458.44,-192.93 468.89,-191.2 459.64,-186.03 458.44,-192.93"/>
</g>
<!-- Node26 -->
<g id="node26" class="node">
<title>Node26</title>
<g id="a_node26"><a xlink:href="../../d8/dbe/classCalculator.html#a1264d26247e77ad966aea7371c45c314" target="_top" xlink:title="Calculate the square root of a number.">
<polygon fill="white" stroke="black" points="466.5,-380.5 466.5,-399.5 557.5,-399.5 557.5,-380.5 466.5,-380.5"/>
<text text-anchor="middle" x="512" y="-387.5" font-family="Helvetica,sans-Serif" font-size="10.00">Calculator::sqrt</text>
</a>
</g>
</g>
<!-- Node1&#45;&gt;Node26 -->
<g id="edge51" class="edge">
<title>Node1&#45;&gt;Node26</title>
<path fill="none" stroke="midnightblue" d="M33,-323.55C43.68,-331.83 60.39,-343.34 77,-349 207.66,-393.52 372.44,-395.42 456.4,-392.82"/>
<polygon fill="midnightblue" stroke="midnightblue" points="456.6,-396.32 466.47,-392.48 456.36,-389.32 456.6,-396.32"/>
</g>
<!-- Node27 -->
<g id="node27" class="node">
<title>Node27</title>
<g id="a_node27"><a xlink:href="../../d8/dbe/classCalculator.html#a4180b40722d78518ee1d3ba8ad58f632" target="_top" xlink:title="Calculate tangent in radians.">
<polygon fill="white" stroke="black" points="468,-152.5 468,-171.5 556,-171.5 556,-152.5 468,-152.5"/>
<text text-anchor="middle" x="512" y="-159.5" font-family="Helvetica,sans-Serif" font-size="10.00">Calculator::tan</text>
</a>
</g>
</g>
<!-- Node1&#45;&gt;Node27 -->
<g id="edge54" class="edge">
<title>Node1&#45;&gt;Node27</title>
<path fill="none" stroke="midnightblue" d="M22.07,-304.28C24.15,-278.5 33.74,-208.24 77,-178 136.97,-136.08 355.46,-148.53 457.64,-157"/>
<polygon fill="midnightblue" stroke="midnightblue" points="457.49,-160.5 467.75,-157.86 458.08,-153.52 457.49,-160.5"/>
</g>
<!-- Node4 -->
<g id="node4" class="node">
<title>Node4</title>
<g id="a_node4"><a xlink:href="../../d8/dbe/classCalculator.html#a54ca827c4b408c795576d48503eee6aa" target="_top" xlink:title=" ">
<polygon fill="white" stroke="black" points="467,-532.5 467,-551.5 557,-551.5 557,-532.5 467,-532.5"/>
<text text-anchor="middle" x="512" y="-539.5" font-family="Helvetica,sans-Serif" font-size="10.00">Calculator::add</text>
</a>
</g>
</g>
<!-- Node3&#45;&gt;Node4 -->
<g id="edge3" class="edge">
<title>Node3&#45;&gt;Node4</title>
<path fill="none" stroke="midnightblue" d="M354.75,-589.37C375.78,-581.22 407.13,-569.53 435,-561 442.86,-558.6 451.24,-556.27 459.47,-554.11"/>
<polygon fill="midnightblue" stroke="midnightblue" points="460.55,-557.45 469.37,-551.58 458.81,-550.67 460.55,-557.45"/>
</g>
<!-- Node6 -->
<g id="node6" class="node">
<title>Node6</title>
<g id="a_node6"><a xlink:href="../../d8/dbe/classCalculator.html#a764f3d664f2401435b3300dcc043e139" target="_top" xlink:title="Format number for display.">
<polygon fill="white" stroke="black" points="633.5,-456.5 633.5,-475.5 777.5,-475.5 777.5,-456.5 633.5,-456.5"/>
<text text-anchor="middle" x="705.5" y="-463.5" font-family="Helvetica,sans-Serif" font-size="10.00">Calculator::formatNumber</text>
</a>
</g>
</g>
<!-- Node3&#45;&gt;Node6 -->
<g id="edge9" class="edge">
<title>Node3&#45;&gt;Node6</title>
<path fill="none" stroke="midnightblue" d="M335.67,-608.81C348.63,-632.23 385.11,-691.05 435,-713 497.65,-740.56 531.25,-749.74 589,-713 670.53,-661.12 695.48,-534.92 702.24,-485.92"/>
<polygon fill="midnightblue" stroke="midnightblue" points="705.75,-486.06 703.53,-475.7 698.8,-485.18 705.75,-486.06"/>
</g>
<!-- Node7 -->
<g id="node7" class="node">
<title>Node7</title>
<g id="a_node7"><a xlink:href="../../d8/dbe/classCalculator.html#a7da73cdbcc434a4f28d614f7f036b74a" target="_top" xlink:title=" ">
<polygon fill="white" stroke="black" points="461,-684.5 461,-703.5 563,-703.5 563,-684.5 461,-684.5"/>
<text text-anchor="middle" x="512" y="-691.5" font-family="Helvetica,sans-Serif" font-size="10.00">Calculator::divide</text>
</a>
</g>
</g>
<!-- Node3&#45;&gt;Node7 -->
<g id="edge6" class="edge">
<title>Node3&#45;&gt;Node7</title>
<path fill="none" stroke="midnightblue" d="M340.9,-608.72C358.75,-624.88 396.99,-657.25 435,-675 440.21,-677.43 445.77,-679.58 451.43,-681.47"/>
<polygon fill="midnightblue" stroke="midnightblue" points="450.4,-684.82 460.99,-684.41 452.46,-678.13 450.4,-684.82"/>
</g>
<!-- Node8 -->
<g id="node8" class="node">
<title>Node8</title>
<g id="a_node8"><a xlink:href="../../d8/dbe/classCalculator.html#a319373a53b4e84f92c207e4f7bb9dfce" target="_top" xlink:title=" ">
<polygon fill="white" stroke="black" points="455.5,-646.5 455.5,-665.5 568.5,-665.5 568.5,-646.5 455.5,-646.5"/>
<text text-anchor="middle" x="512" y="-653.5" font-family="Helvetica,sans-Serif" font-size="10.00">Calculator::multiply</text>
</a>
</g>
</g>
<!-- Node3&#45;&gt;Node8 -->
<g id="edge10" class="edge">
<title>Node3&#45;&gt;Node8</title>
<path fill="none" stroke="midnightblue" d="M354.75,-608.63C375.78,-616.78 407.13,-628.47 435,-637 442.86,-639.4 451.24,-641.73 459.47,-643.89"/>
<polygon fill="midnightblue" stroke="midnightblue" points="458.81,-647.33 469.37,-646.42 460.55,-640.55 458.81,-647.33"/>
</g>
<!-- Node9 -->
<g id="node9" class="node">
<title>Node9</title>
<g id="a_node9"><a xlink:href="../../d8/dbe/classCalculator.html#a6daef00d57c1e9cdcefcf017020b0cb2" target="_top" xlink:title="Calculate the power of a number.">
<polygon fill="white" stroke="black" points="461,-608.5 461,-627.5 563,-627.5 563,-608.5 461,-608.5"/>
<text text-anchor="middle" x="512" y="-615.5" font-family="Helvetica,sans-Serif" font-size="10.00">Calculator::power</text>
</a>
</g>
</g>
<!-- Node3&#45;&gt;Node9 -->
<g id="edge13" class="edge">
<title>Node3&#45;&gt;Node9</title>
<path fill="none" stroke="midnightblue" d="M387.61,-605.01C407.76,-607.13 430.46,-609.52 450.85,-611.67"/>
<polygon fill="midnightblue" stroke="midnightblue" points="450.65,-615.17 460.96,-612.73 451.38,-608.2 450.65,-615.17"/>
</g>
<!-- Node10 -->
<g id="node10" class="node">
<title>Node10</title>
<g id="a_node10"><a xlink:href="../../d8/dbe/classCalculator.html#ad8a28a8b990342d4bfde65ab85ec7596" target="_top" xlink:title=" ">
<polygon fill="white" stroke="black" points="456,-570.5 456,-589.5 568,-589.5 568,-570.5 456,-570.5"/>
<text text-anchor="middle" x="512" y="-577.5" font-family="Helvetica,sans-Serif" font-size="10.00">Calculator::subtract</text>
</a>
</g>
</g>
<!-- Node3&#45;&gt;Node10 -->
<g id="edge16" class="edge">
<title>Node3&#45;&gt;Node10</title>
<path fill="none" stroke="midnightblue" d="M387.61,-592.99C406.08,-591.04 426.71,-588.87 445.73,-586.87"/>
<polygon fill="midnightblue" stroke="midnightblue" points="446.22,-590.34 455.8,-585.81 445.49,-583.38 446.22,-590.34"/>
</g>
<!-- Node5 -->
<g id="node5" class="node">
<title>Node5</title>
<g id="a_node5"><a xlink:href="../../d8/dbe/classCalculator.html#add8a2ef3e8af88790326ad83b1cd541a" target="_top" xlink:title="Add entry to calculation history.">
<polygon fill="white" stroke="black" points="637.5,-418.5 637.5,-437.5 773.5,-437.5 773.5,-418.5 637.5,-418.5"/>
<text text-anchor="middle" x="705.5" y="-425.5" font-family="Helvetica,sans-Serif" font-size="10.00">Calculator::addToHistory</text>
</a>
</g>
</g>
<!-- Node4&#45;&gt;Node5 -->
<g id="edge4" class="edge">
<title>Node4&#45;&gt;Node5</title>
<path fill="none" stroke="midnightblue" d="M557.07,-537.8C568.41,-534.99 579.95,-530.42 589,-523 617.9,-499.3 595.97,-470.55 625,-447 627.07,-445.32 629.27,-443.78 631.56,-442.38"/>
<polygon fill="midnightblue" stroke="midnightblue" points="633.54,-445.29 640.82,-437.59 630.33,-439.08 633.54,-445.29"/>
</g>
<!-- Node4&#45;&gt;Node6 -->
<g id="edge5" class="edge">
<title>Node4&#45;&gt;Node6</title>
<path fill="none" stroke="midnightblue" d="M557.29,-532.62C567.81,-529.93 578.91,-526.7 589,-523 621.1,-511.22 656.07,-493.17 679.02,-480.55"/>
<polygon fill="midnightblue" stroke="midnightblue" points="680.75,-483.59 687.78,-475.67 677.34,-477.48 680.75,-483.59"/>
</g>
<!-- Node7&#45;&gt;Node5 -->
<g id="edge7" class="edge">
<title>Node7&#45;&gt;Node5</title>
<path fill="none" stroke="midnightblue" d="M563.32,-690.1C572.99,-687.14 582.2,-682.42 589,-675 658.27,-599.33 555.34,-522.31 625,-447 626.23,-445.67 627.53,-444.43 628.89,-443.27"/>
<polygon fill="midnightblue" stroke="midnightblue" points="631.08,-446.02 637.33,-437.46 627.11,-440.25 631.08,-446.02"/>
</g>
<!-- Node7&#45;&gt;Node6 -->
<g id="edge8" class="edge">
<title>Node7&#45;&gt;Node6</title>
<path fill="none" stroke="midnightblue" d="M563.11,-687.67C572.35,-684.85 581.45,-680.8 589,-675 654.17,-624.9 687.67,-527.03 699.47,-485.44"/>
<polygon fill="midnightblue" stroke="midnightblue" points="702.87,-486.28 702.12,-475.72 696.12,-484.44 702.87,-486.28"/>
</g>
<!-- Node8&#45;&gt;Node5 -->
<g id="edge11" class="edge">
<title>Node8&#45;&gt;Node5</title>
<path fill="none" stroke="midnightblue" d="M568.58,-650.08C576.25,-647.13 583.4,-642.93 589,-637 647.99,-574.5 565.68,-509.19 625,-447 626.25,-445.69 627.56,-444.47 628.94,-443.33"/>
<polygon fill="midnightblue" stroke="midnightblue" points="631.13,-446.08 637.46,-437.58 627.21,-440.27 631.13,-446.08"/>
</g>
<!-- Node8&#45;&gt;Node6 -->
<g id="edge12" class="edge">
<title>Node8&#45;&gt;Node6</title>
<path fill="none" stroke="midnightblue" d="M568.65,-647.19C575.87,-644.61 582.87,-641.29 589,-637 645.38,-597.52 682.19,-520.99 697.05,-485.25"/>
<polygon fill="midnightblue" stroke="midnightblue" points="700.46,-486.14 700.95,-475.56 693.97,-483.53 700.46,-486.14"/>
</g>
<!-- Node9&#45;&gt;Node5 -->
<g id="edge14" class="edge">
<title>Node9&#45;&gt;Node5</title>
<path fill="none" stroke="midnightblue" d="M563.29,-613.58C572.85,-610.64 582.02,-606.06 589,-599 637.78,-549.61 575.96,-496.14 625,-447 626.43,-445.57 627.94,-444.24 629.53,-443"/>
<polygon fill="midnightblue" stroke="midnightblue" points="631.49,-445.9 638.02,-437.56 627.71,-440.01 631.49,-445.9"/>
</g>
<!-- Node9&#45;&gt;Node6 -->
<g id="edge15" class="edge">
<title>Node9&#45;&gt;Node6</title>
<path fill="none" stroke="midnightblue" d="M563.01,-610.13C572.06,-607.44 581.12,-603.84 589,-599 637.01,-569.54 675.72,-513.63 693.66,-484.58"/>
<polygon fill="midnightblue" stroke="midnightblue" points="696.77,-486.2 698.94,-475.83 690.78,-482.59 696.77,-486.2"/>
</g>
<!-- Node10&#45;&gt;Node5 -->
<g id="edge17" class="edge">
<title>Node10&#45;&gt;Node5</title>
<path fill="none" stroke="midnightblue" d="M568.37,-573.33C575.97,-570.47 583.16,-566.5 589,-561 627.7,-524.59 586.11,-483.21 625,-447 626.52,-445.59 628.12,-444.27 629.8,-443.05"/>
<polygon fill="midnightblue" stroke="midnightblue" points="631.95,-445.84 638.7,-437.68 628.33,-439.85 631.95,-445.84"/>
</g>
<!-- Node10&#45;&gt;Node6 -->
<g id="edge18" class="edge">
<title>Node10&#45;&gt;Node6</title>
<path fill="none" stroke="midnightblue" d="M564.41,-570.46C572.86,-567.96 581.35,-564.85 589,-561 629.09,-540.8 667.72,-504.55 688.57,-483.14"/>
<polygon fill="midnightblue" stroke="midnightblue" points="691.27,-485.38 695.65,-475.73 686.21,-480.54 691.27,-485.38"/>
</g>
<!-- Node12&#45;&gt;Node5 -->
<g id="edge21" class="edge">
<title>Node12&#45;&gt;Node5</title>
<path fill="none" stroke="midnightblue" d="M556.63,-282.11C567.73,-284.93 579.26,-289.03 589,-295 637.01,-324.46 675.72,-380.37 693.66,-409.42"/>
<polygon fill="midnightblue" stroke="midnightblue" points="690.78,-411.41 698.94,-418.17 696.77,-407.8 690.78,-411.41"/>
</g>
<!-- Node12&#45;&gt;Node6 -->
<g id="edge23" class="edge">
<title>Node12&#45;&gt;Node6</title>
<path fill="none" stroke="midnightblue" d="M556.57,-278.62C568.45,-281.36 580.4,-286.29 589,-295 637.78,-344.39 575.96,-397.86 625,-447 626.43,-448.43 627.94,-449.76 629.53,-451"/>
<polygon fill="midnightblue" stroke="midnightblue" points="627.71,-453.99 638.02,-456.44 631.49,-448.1 627.71,-453.99"/>
</g>
<!-- Node13 -->
<g id="node13" class="node">
<title>Node13</title>
<g id="a_node13"><a xlink:href="../../d8/dbe/classCalculator.html#abf6e7d9881622455b2a506e40082724f" target="_top" xlink:title="Convert between degrees and radians.">
<polygon fill="white" stroke="black" points="625,-190.5 625,-209.5 786,-209.5 786,-190.5 625,-190.5"/>
<text text-anchor="middle" x="705.5" y="-197.5" font-family="Helvetica,sans-Serif" font-size="10.00">Calculator::degreesToRadians</text>
</a>
</g>
</g>
<!-- Node12&#45;&gt;Node13 -->
<g id="edge22" class="edge">
<title>Node12&#45;&gt;Node13</title>
<path fill="none" stroke="midnightblue" d="M537.25,-266.37C571.07,-252.95 632.52,-228.57 670.78,-213.38"/>
<polygon fill="midnightblue" stroke="midnightblue" points="672.44,-216.49 680.44,-209.55 669.86,-209.98 672.44,-216.49"/>
</g>
<!-- Node15 -->
<g id="node15" class="node">
<title>Node15</title>
<g id="a_node15"><a xlink:href="../../d8/dbe/classCalculator.html#af21e05c5740767607b06bf980d3edfcd" target="_top" xlink:title="Get calculation history.">
<polygon fill="white" stroke="black" points="268,-76.5 268,-95.5 391,-95.5 391,-76.5 268,-76.5"/>
<text text-anchor="middle" x="329.5" y="-83.5" font-family="Helvetica,sans-Serif" font-size="10.00">Calculator::getHistory</text>
</a>
</g>
</g>
<!-- Node14&#45;&gt;Node15 -->
<g id="edge25" class="edge">
<title>Node14&#45;&gt;Node15</title>
<path fill="none" stroke="midnightblue" d="M194.35,-86C213.42,-86 236.4,-86 257.9,-86"/>
<polygon fill="midnightblue" stroke="midnightblue" points="257.99,-89.5 267.99,-86 257.99,-82.5 257.99,-89.5"/>
</g>
<!-- Node18&#45;&gt;Node5 -->
<g id="edge29" class="edge">
<title>Node18&#45;&gt;Node5</title>
<path fill="none" stroke="midnightblue" d="M552.54,-360.19C564.42,-363.1 577.38,-366.74 589,-371 621.1,-382.78 656.07,-400.83 679.02,-413.45"/>
<polygon fill="midnightblue" stroke="midnightblue" points="677.34,-416.52 687.78,-418.33 680.75,-410.41 677.34,-416.52"/>
</g>
<!-- Node18&#45;&gt;Node6 -->
<g id="edge30" class="edge">
<title>Node18&#45;&gt;Node6</title>
<path fill="none" stroke="midnightblue" d="M552.73,-355.2C565.42,-357.88 578.8,-362.64 589,-371 617.9,-394.7 595.97,-423.45 625,-447 627.07,-448.68 629.27,-450.22 631.56,-451.62"/>
<polygon fill="midnightblue" stroke="midnightblue" points="630.33,-454.92 640.82,-456.41 633.54,-448.71 630.33,-454.92"/>
</g>
<!-- Node19&#45;&gt;Node5 -->
<g id="edge32" class="edge">
<title>Node19&#45;&gt;Node5</title>
<path fill="none" stroke="midnightblue" d="M564.41,-323.54C572.86,-326.04 581.35,-329.15 589,-333 629.09,-353.2 667.72,-389.45 688.57,-410.86"/>
<polygon fill="midnightblue" stroke="midnightblue" points="686.21,-413.46 695.65,-418.27 691.27,-408.62 686.21,-413.46"/>
</g>
<!-- Node19&#45;&gt;Node6 -->
<g id="edge33" class="edge">
<title>Node19&#45;&gt;Node6</title>
<path fill="none" stroke="midnightblue" d="M575.18,-323.61C580.23,-326.09 584.94,-329.18 589,-333 627.7,-369.41 586.11,-410.79 625,-447 626.52,-448.41 628.12,-449.73 629.8,-450.95"/>
<polygon fill="midnightblue" stroke="midnightblue" points="628.33,-454.15 638.7,-456.32 631.95,-448.16 628.33,-454.15"/>
</g>
<!-- Node20&#45;&gt;Node5 -->
<g id="edge35" class="edge">
<title>Node20&#45;&gt;Node5</title>
<path fill="none" stroke="midnightblue" d="M388.62,-228.5C443.96,-222.47 527.67,-221.47 589,-257 649.1,-291.81 684.41,-371.96 698.01,-408.82"/>
<polygon fill="midnightblue" stroke="midnightblue" points="694.76,-410.13 701.41,-418.38 701.36,-407.79 694.76,-410.13"/>
</g>
<!-- Node21&#45;&gt;Node5 -->
<g id="edge37" class="edge">
<title>Node21&#45;&gt;Node5</title>
<path fill="none" stroke="midnightblue" d="M567.24,-494.49C574.83,-492.02 582.31,-488.91 589,-485 609.09,-473.27 604.85,-458.63 625,-447 628.91,-444.74 633.07,-442.76 637.37,-441"/>
<polygon fill="midnightblue" stroke="midnightblue" points="638.73,-444.23 646.93,-437.53 636.34,-437.65 638.73,-444.23"/>
</g>
<!-- Node21&#45;&gt;Node6 -->
<g id="edge38" class="edge">
<title>Node21&#45;&gt;Node6</title>
<path fill="none" stroke="midnightblue" d="M561.32,-494.41C587.16,-489.28 619.17,-482.93 646.36,-477.54"/>
<polygon fill="midnightblue" stroke="midnightblue" points="647.4,-480.9 656.52,-475.52 646.03,-474.03 647.4,-480.9"/>
</g>
<!-- Node22&#45;&gt;Node5 -->
<g id="edge40" class="edge">
<title>Node22&#45;&gt;Node5</title>
<path fill="none" stroke="midnightblue" d="M561.32,-456.41C587.16,-451.28 619.17,-444.93 646.36,-439.54"/>
<polygon fill="midnightblue" stroke="midnightblue" points="647.4,-442.9 656.52,-437.52 646.03,-436.03 647.4,-442.9"/>
</g>
<!-- Node22&#45;&gt;Node6 -->
<g id="edge41" class="edge">
<title>Node22&#45;&gt;Node6</title>
<path fill="none" stroke="midnightblue" d="M581.59,-466C595.15,-466 609.5,-466 623.43,-466"/>
<polygon fill="midnightblue" stroke="midnightblue" points="623.48,-469.5 633.48,-466 623.48,-462.5 623.48,-469.5"/>
</g>
<!-- Node23&#45;&gt;Node5 -->
<g id="edge43" class="edge">
<title>Node23&#45;&gt;Node5</title>
<path fill="none" stroke="midnightblue" d="M589.24,-428C601.62,-428 614.46,-428 626.88,-428"/>
<polygon fill="midnightblue" stroke="midnightblue" points="627.19,-431.5 637.19,-428 627.19,-424.5 627.19,-431.5"/>
</g>
<!-- Node23&#45;&gt;Node6 -->
<g id="edge44" class="edge">
<title>Node23&#45;&gt;Node6</title>
<path fill="none" stroke="midnightblue" d="M561.32,-437.59C587.16,-442.72 619.17,-449.07 646.36,-454.46"/>
<polygon fill="midnightblue" stroke="midnightblue" points="646.03,-457.97 656.52,-456.48 647.4,-451.1 646.03,-457.97"/>
</g>
<!-- Node24&#45;&gt;Node3 -->
<g id="edge46" class="edge">
<title>Node24&#45;&gt;Node3</title>
<path fill="none" stroke="midnightblue" d="M181.13,-551.54C210.74,-561.08 256.44,-575.79 289.09,-586.31"/>
<polygon fill="midnightblue" stroke="midnightblue" points="288.19,-589.69 298.78,-589.43 290.33,-583.03 288.19,-589.69"/>
</g>
<!-- Node25&#45;&gt;Node5 -->
<g id="edge48" class="edge">
<title>Node25&#45;&gt;Node5</title>
<path fill="none" stroke="midnightblue" d="M555.22,-207.3C567.06,-210.87 579.32,-216.16 589,-224 651.29,-274.45 686.1,-368.01 698.84,-408.49"/>
<polygon fill="midnightblue" stroke="midnightblue" points="695.54,-409.67 701.79,-418.22 702.24,-407.63 695.54,-409.67"/>
</g>
<!-- Node25&#45;&gt;Node6 -->
<g id="edge50" class="edge">
<title>Node25&#45;&gt;Node6</title>
<path fill="none" stroke="midnightblue" d="M533.18,-209.67C550.79,-219.2 575.57,-235.44 589,-257 634.46,-329.94 565.68,-384.81 625,-447 626.25,-448.31 627.56,-449.53 628.94,-450.67"/>
<polygon fill="midnightblue" stroke="midnightblue" points="627.21,-453.73 637.46,-456.42 631.13,-447.92 627.21,-453.73"/>
</g>
<!-- Node25&#45;&gt;Node13 -->
<g id="edge49" class="edge">
<title>Node25&#45;&gt;Node13</title>
<path fill="none" stroke="midnightblue" d="M555.03,-200C572.62,-200 593.8,-200 614.61,-200"/>
<polygon fill="midnightblue" stroke="midnightblue" points="614.78,-203.5 624.78,-200 614.78,-196.5 614.78,-203.5"/>
</g>
<!-- Node26&#45;&gt;Node5 -->
<g id="edge52" class="edge">
<title>Node26&#45;&gt;Node5</title>
<path fill="none" stroke="midnightblue" d="M557.9,-398.91C584.4,-404.17 618.23,-410.88 646.71,-416.53"/>
<polygon fill="midnightblue" stroke="midnightblue" points="646.05,-419.97 656.54,-418.48 647.41,-413.1 646.05,-419.97"/>
</g>
<!-- Node26&#45;&gt;Node6 -->
<g id="edge53" class="edge">
<title>Node26&#45;&gt;Node6</title>
<path fill="none" stroke="midnightblue" d="M557.65,-396.71C568.39,-399.5 579.49,-403.44 589,-409 609.09,-420.73 604.85,-435.37 625,-447 628.91,-449.26 633.07,-451.24 637.37,-453"/>
<polygon fill="midnightblue" stroke="midnightblue" points="636.34,-456.35 646.93,-456.47 638.73,-449.77 636.34,-456.35"/>
</g>
<!-- Node27&#45;&gt;Node5 -->
<g id="edge55" class="edge">
<title>Node27&#45;&gt;Node5</title>
<path fill="none" stroke="midnightblue" d="M556.3,-165.98C567.9,-168.77 579.76,-173.39 589,-181 663.08,-242.04 692.27,-361.36 701.21,-408.33"/>
<polygon fill="midnightblue" stroke="midnightblue" points="697.8,-409.18 703.02,-418.4 704.69,-407.94 697.8,-409.18"/>
</g>
<!-- Node27&#45;&gt;Node6 -->
<g id="edge57" class="edge">
<title>Node27&#45;&gt;Node6</title>
<path fill="none" stroke="midnightblue" d="M556.33,-163.92C568.49,-166.6 580.65,-171.68 589,-181 668.57,-269.89 544.97,-358.53 625,-447 626.07,-448.18 627.2,-449.3 628.38,-450.35"/>
<polygon fill="midnightblue" stroke="midnightblue" points="626.7,-453.45 636.87,-456.42 630.77,-447.75 626.7,-453.45"/>
</g>
<!-- Node27&#45;&gt;Node13 -->
<g id="edge56" class="edge">
<title>Node27&#45;&gt;Node13</title>
<path fill="none" stroke="midnightblue" d="M556.45,-170.62C583.11,-175.91 617.56,-182.75 646.52,-188.49"/>
<polygon fill="midnightblue" stroke="midnightblue" points="646.02,-191.96 656.51,-190.48 647.38,-185.1 646.02,-191.96"/>
</g>
</g>
</svg>
        <g id="navigator" transform="translate(0 0)" fill="#404254">
                <rect fill="#f2f5e9" fill-opacity="0.5" stroke="#606060" stroke-width=".5" x="0" y="0" width="60" height="60"/>
                <use id="zoomplus" xlink:href="#zoomPlus" x="17" y="9" onmousedown="handleZoom(evt,'in')"/>
                <use id="zoomminus" xlink:href="#zoomMin" x="42" y="9" onmousedown="handleZoom(evt,'out')"/>
                <use id="reset" xlink:href="#resetDef" x="30" y="36" onmousedown="handleReset()"/>
                <g id="arrowUp" xlink:href="#dirArrow" transform="translate(30 24)" onmousedown="handlePan(0,-1)">
                  <use xlink:href="#rim" fill="#404040">
                        <set attributeName="fill" to="#808080" begin="arrowUp.mouseover" end="arrowUp.mouseout"/>
                  </use>
                  <path fill="none" stroke="white" stroke-width="1.5" d="M0,-3.0v7 M-2.5,-0.5L0,-3.0L2.5,-0.5"/>
                </g>
                <g id="arrowRight" xlink:href="#dirArrow" transform="rotate(90) translate(36 -43)" onmousedown="handlePan(1,0)">
                  <use xlink:href="#rim" fill="#404040">
                        <set attributeName="fill" to="#808080" begin="arrowRight.mouseover" end="arrowRight.mouseout"/>
                  </use>
                  <path fill="none" stroke="white" stroke-width="1.5" d="M0,-3.0v7 M-2.5,-0.5L0,-3.0L2.5,-0.5"/>
                </g>
                <g id="arrowDown" xlink:href="#dirArrow" transform="rotate(180) translate(-30 -48)" onmousedown="handlePan(0,1)">
                  <use xlink:href="#rim" fill="#404040">
                        <set attributeName="fill" to="#808080" begin="arrowDown.mouseover" end="arrowDown.mouseout"/>
                  </use>
                  <path fill="none" stroke="white" stroke-width="1.5" d="M0,-3.0v7 M-2.5,-0.5L0,-3.0L2.5,-0.5"/>
                </g>
                <g id="arrowLeft" xlink:href="#dirArrow" transform="rotate(270) translate(-36 17)" onmousedown="handlePan(-1,0)">
                  <use xlink:href="#rim" fill="#404040">
                        <set attributeName="fill" to="#808080" begin="arrowLeft.mouseover" end="arrowLeft.mouseout"/>
                  </use>
                  <path fill="none" stroke="white" stroke-width="1.5" d="M0,-3.0v7 M-2.5,-0.5L0,-3.0L2.5,-0.5"/>
                </g>
        </g>
        <svg viewBox="0 0 15 15" width="100%" height="30px" preserveAspectRatio="xMaxYMin meet">
         <g id="arrow_out" transform="scale(0.3 0.3)">
          <a xlink:href="main_8cpp_ae66f6b31b5ad750f1fe042a706a4e3d4_cgraph_org.svg" target="_base">
           <rect id="button" ry="5" rx="5" y="6" x="6" height="38" width="38"
                fill="#f2f5e9" fill-opacity="0.5" stroke="#606060" stroke-width="1.0"/>
           <path id="arrow"
             d="M 11.500037,31.436501 C 11.940474,20.09759 22.043105,11.32322 32.158766,21.979434 L 37.068811,17.246167 C 37.068811,17.246167 37.088388,32 37.088388,32 L 22.160133,31.978069 C 22.160133,31.978069 26.997745,27.140456 26.997745,27.140456 C 18.528582,18.264221 13.291696,25.230495 11.500037,31.436501 z"
             style="fill:#404040;"/>
          </a>
         </g>
        </svg>
</svg>
