<?xml version="1.0" encoding="UTF-8" standalone="no"?>
<!DOCTYPE svg PUBLIC "-//W3C//DTD SVG 1.1//EN"
 "http://www.w3.org/Graphics/SVG/1.1/DTD/svg11.dtd">
<!-- Generated by graphviz version 2.43.0 (0)
 -->
<!-- Title: src/calculator.cpp Pages: 1 -->
<svg width="549pt" height="140pt"
 viewBox="0.00 0.00 549.00 140.00" xmlns="http://www.w3.org/2000/svg" xmlns:xlink="http://www.w3.org/1999/xlink">
<g id="graph0" class="graph" transform="scale(1 1) rotate(0) translate(4 136)">
<title>src/calculator.cpp</title>
<polygon fill="white" stroke="transparent" points="-4,4 -4,-136 545,-136 545,4 -4,4"/>
<!-- Node1 -->
<g id="node1" class="node">
<title>Node1</title>
<g id="a_node1"><a xlink:title=" ">
<polygon fill="#bfbfbf" stroke="black" points="229,-112.5 229,-131.5 330,-131.5 330,-112.5 229,-112.5"/>
<text text-anchor="middle" x="279.5" y="-119.5" font-family="Helvetica,sans-Serif" font-size="10.00">src/calculator.cpp</text>
</a>
</g>
</g>
<!-- Node2 -->
<g id="node2" class="node">
<title>Node2</title>
<g id="a_node2"><a xlink:href="../../db/d2b/calculator_8h.html" target="_top" xlink:title="Advanced Calculator Class Implementation.">
<polygon fill="white" stroke="black" points="120,-56.5 120,-75.5 193,-75.5 193,-56.5 120,-56.5"/>
<text text-anchor="middle" x="156.5" y="-63.5" font-family="Helvetica,sans-Serif" font-size="10.00">calculator.h</text>
</a>
</g>
</g>
<!-- Node1&#45;&gt;Node2 -->
<g id="edge1" class="edge">
<title>Node1&#45;&gt;Node2</title>
<path fill="none" stroke="midnightblue" d="M260.01,-112.44C239.86,-103.6 208.18,-89.69 185.17,-79.59"/>
<polygon fill="midnightblue" stroke="midnightblue" points="186.46,-76.33 175.9,-75.52 183.65,-82.74 186.46,-76.33"/>
</g>
<!-- Node4 -->
<g id="node4" class="node">
<title>Node4</title>
<g id="a_node4"><a xlink:title=" ">
<polygon fill="white" stroke="#bfbfbf" points="0,-0.5 0,-19.5 47,-19.5 47,-0.5 0,-0.5"/>
<text text-anchor="middle" x="23.5" y="-7.5" font-family="Helvetica,sans-Serif" font-size="10.00">vector</text>
</a>
</g>
</g>
<!-- Node1&#45;&gt;Node4 -->
<g id="edge12" class="edge">
<title>Node1&#45;&gt;Node4</title>
<path fill="none" stroke="midnightblue" d="M228.88,-112.58C194.59,-105.66 148.9,-94.02 111.5,-76 84.69,-63.08 57.73,-41.63 40.85,-26.93"/>
<polygon fill="midnightblue" stroke="midnightblue" points="42.79,-23.97 33,-19.93 38.14,-29.2 42.79,-23.97"/>
</g>
<!-- Node5 -->
<g id="node5" class="node">
<title>Node5</title>
<g id="a_node5"><a xlink:title=" ">
<polygon fill="white" stroke="#bfbfbf" points="287,-0.5 287,-19.5 334,-19.5 334,-0.5 287,-0.5"/>
<text text-anchor="middle" x="310.5" y="-7.5" font-family="Helvetica,sans-Serif" font-size="10.00">cmath</text>
</a>
</g>
</g>
<!-- Node1&#45;&gt;Node5 -->
<g id="edge10" class="edge">
<title>Node1&#45;&gt;Node5</title>
<path fill="none" stroke="midnightblue" d="M267.72,-112.3C252.51,-99.95 229.28,-76.56 240.5,-56 248.51,-41.33 263.57,-30.73 277.67,-23.52"/>
<polygon fill="midnightblue" stroke="midnightblue" points="279.17,-26.69 286.72,-19.26 276.18,-20.35 279.17,-26.69"/>
</g>
<!-- Node8 -->
<g id="node8" class="node">
<title>Node8</title>
<g id="a_node8"><a xlink:title=" ">
<polygon fill="white" stroke="#bfbfbf" points="249.5,-56.5 249.5,-75.5 309.5,-75.5 309.5,-56.5 249.5,-56.5"/>
<text text-anchor="middle" x="279.5" y="-63.5" font-family="Helvetica,sans-Serif" font-size="10.00">iostream</text>
</a>
</g>
</g>
<!-- Node1&#45;&gt;Node8 -->
<g id="edge7" class="edge">
<title>Node1&#45;&gt;Node8</title>
<path fill="none" stroke="midnightblue" d="M279.5,-112.08C279.5,-105.01 279.5,-94.86 279.5,-85.99"/>
<polygon fill="midnightblue" stroke="midnightblue" points="283,-85.75 279.5,-75.75 276,-85.75 283,-85.75"/>
</g>
<!-- Node9 -->
<g id="node9" class="node">
<title>Node9</title>
<g id="a_node9"><a xlink:title=" ">
<polygon fill="white" stroke="#bfbfbf" points="327.5,-56.5 327.5,-75.5 383.5,-75.5 383.5,-56.5 327.5,-56.5"/>
<text text-anchor="middle" x="355.5" y="-63.5" font-family="Helvetica,sans-Serif" font-size="10.00">sstream</text>
</a>
</g>
</g>
<!-- Node1&#45;&gt;Node9 -->
<g id="edge8" class="edge">
<title>Node1&#45;&gt;Node9</title>
<path fill="none" stroke="midnightblue" d="M291.71,-112.32C303.28,-104.11 320.88,-91.6 334.66,-81.81"/>
<polygon fill="midnightblue" stroke="midnightblue" points="336.94,-84.48 343.07,-75.83 332.89,-78.77 336.94,-84.48"/>
</g>
<!-- Node10 -->
<g id="node10" class="node">
<title>Node10</title>
<g id="a_node10"><a xlink:title=" ">
<polygon fill="white" stroke="#bfbfbf" points="401.5,-56.5 401.5,-75.5 457.5,-75.5 457.5,-56.5 401.5,-56.5"/>
<text text-anchor="middle" x="429.5" y="-63.5" font-family="Helvetica,sans-Serif" font-size="10.00">iomanip</text>
</a>
</g>
</g>
<!-- Node1&#45;&gt;Node10 -->
<g id="edge9" class="edge">
<title>Node1&#45;&gt;Node10</title>
<path fill="none" stroke="midnightblue" d="M303.27,-112.44C328.39,-103.4 368.21,-89.06 396.4,-78.92"/>
<polygon fill="midnightblue" stroke="midnightblue" points="397.62,-82.2 405.84,-75.52 395.25,-75.61 397.62,-82.2"/>
</g>
<!-- Node11 -->
<g id="node11" class="node">
<title>Node11</title>
<g id="a_node11"><a xlink:title=" ">
<polygon fill="white" stroke="#bfbfbf" points="476,-56.5 476,-75.5 541,-75.5 541,-56.5 476,-56.5"/>
<text text-anchor="middle" x="508.5" y="-63.5" font-family="Helvetica,sans-Serif" font-size="10.00">stdexcept</text>
</a>
</g>
</g>
<!-- Node1&#45;&gt;Node11 -->
<g id="edge11" class="edge">
<title>Node1&#45;&gt;Node11</title>
<path fill="none" stroke="midnightblue" d="M315.79,-112.44C356.53,-102.83 422.6,-87.26 465.8,-77.07"/>
<polygon fill="midnightblue" stroke="midnightblue" points="466.79,-80.43 475.72,-74.73 465.19,-73.62 466.79,-80.43"/>
</g>
<!-- Node3 -->
<g id="node3" class="node">
<title>Node3</title>
<g id="a_node3"><a xlink:title=" ">
<polygon fill="white" stroke="#bfbfbf" points="65.5,-0.5 65.5,-19.5 109.5,-19.5 109.5,-0.5 65.5,-0.5"/>
<text text-anchor="middle" x="87.5" y="-7.5" font-family="Helvetica,sans-Serif" font-size="10.00">string</text>
</a>
</g>
</g>
<!-- Node2&#45;&gt;Node3 -->
<g id="edge2" class="edge">
<title>Node2&#45;&gt;Node3</title>
<path fill="none" stroke="midnightblue" d="M145.41,-56.32C135.01,-48.18 119.24,-35.84 106.78,-26.09"/>
<polygon fill="midnightblue" stroke="midnightblue" points="108.82,-23.24 98.79,-19.83 104.51,-28.75 108.82,-23.24"/>
</g>
<!-- Node2&#45;&gt;Node4 -->
<g id="edge3" class="edge">
<title>Node2&#45;&gt;Node4</title>
<path fill="none" stroke="midnightblue" d="M135.43,-56.44C113.44,-47.52 78.77,-33.44 53.84,-23.32"/>
<polygon fill="midnightblue" stroke="midnightblue" points="55.06,-20.04 44.48,-19.52 52.42,-26.52 55.06,-20.04"/>
</g>
<!-- Node2&#45;&gt;Node5 -->
<g id="edge4" class="edge">
<title>Node2&#45;&gt;Node5</title>
<path fill="none" stroke="midnightblue" d="M180.9,-56.44C206.92,-47.32 248.3,-32.81 277.28,-22.65"/>
<polygon fill="midnightblue" stroke="midnightblue" points="278.69,-25.86 286.97,-19.25 276.38,-19.26 278.69,-25.86"/>
</g>
<!-- Node6 -->
<g id="node6" class="node">
<title>Node6</title>
<g id="a_node6"><a xlink:title=" ">
<polygon fill="white" stroke="#bfbfbf" points="127.5,-0.5 127.5,-19.5 185.5,-19.5 185.5,-0.5 127.5,-0.5"/>
<text text-anchor="middle" x="156.5" y="-7.5" font-family="Helvetica,sans-Serif" font-size="10.00">memory</text>
</a>
</g>
</g>
<!-- Node2&#45;&gt;Node6 -->
<g id="edge5" class="edge">
<title>Node2&#45;&gt;Node6</title>
<path fill="none" stroke="midnightblue" d="M156.5,-56.08C156.5,-49.01 156.5,-38.86 156.5,-29.99"/>
<polygon fill="midnightblue" stroke="midnightblue" points="160,-29.75 156.5,-19.75 153,-29.75 160,-29.75"/>
</g>
<!-- Node7 -->
<g id="node7" class="node">
<title>Node7</title>
<g id="a_node7"><a xlink:title=" ">
<polygon fill="white" stroke="#bfbfbf" points="204,-0.5 204,-19.5 269,-19.5 269,-0.5 204,-0.5"/>
<text text-anchor="middle" x="236.5" y="-7.5" font-family="Helvetica,sans-Serif" font-size="10.00">functional</text>
</a>
</g>
</g>
<!-- Node2&#45;&gt;Node7 -->
<g id="edge6" class="edge">
<title>Node2&#45;&gt;Node7</title>
<path fill="none" stroke="midnightblue" d="M169.35,-56.32C181.72,-47.98 200.63,-35.21 215.24,-25.35"/>
<polygon fill="midnightblue" stroke="midnightblue" points="217.35,-28.15 223.68,-19.65 213.43,-22.35 217.35,-28.15"/>
</g>
</g>
</svg>
