<?xml version="1.0" encoding="UTF-8" standalone="no"?>
<!DOCTYPE svg PUBLIC "-//W3C//DTD SVG 1.1//EN"
 "http://www.w3.org/Graphics/SVG/1.1/DTD/svg11.dtd">
<!-- Generated by graphviz version 2.43.0 (0)
 -->
<!-- Title: Calculator::ln Pages: 1 -->
<svg width="269pt" height="66pt"
 viewBox="0.00 0.00 269.00 66.00" xmlns="http://www.w3.org/2000/svg" xmlns:xlink="http://www.w3.org/1999/xlink">
<g id="graph0" class="graph" transform="scale(1 1) rotate(0) translate(4 62)">
<title>Calculator::ln</title>
<polygon fill="white" stroke="transparent" points="-4,4 -4,-62 265,-62 265,4 -4,4"/>
<!-- Node1 -->
<g id="node1" class="node">
<title>Node1</title>
<g id="a_node1"><a xlink:title="Calculate the natural logarithm.">
<polygon fill="#bfbfbf" stroke="black" points="0,-19.5 0,-38.5 81,-38.5 81,-19.5 0,-19.5"/>
<text text-anchor="middle" x="40.5" y="-26.5" font-family="Helvetica,sans-Serif" font-size="10.00">Calculator::ln</text>
</a>
</g>
</g>
<!-- Node2 -->
<g id="node2" class="node">
<title>Node2</title>
<g id="a_node2"><a xlink:href="../../d8/dbe/classCalculator.html#add8a2ef3e8af88790326ad83b1cd541a" target="_top" xlink:title="Add entry to calculation history.">
<polygon fill="white" stroke="black" points="121,-38.5 121,-57.5 257,-57.5 257,-38.5 121,-38.5"/>
<text text-anchor="middle" x="189" y="-45.5" font-family="Helvetica,sans-Serif" font-size="10.00">Calculator::addToHistory</text>
</a>
</g>
</g>
<!-- Node1&#45;&gt;Node2 -->
<g id="edge1" class="edge">
<title>Node1&#45;&gt;Node2</title>
<path fill="none" stroke="midnightblue" d="M81.15,-34.14C90.36,-35.34 100.48,-36.65 110.71,-37.98"/>
<polygon fill="midnightblue" stroke="midnightblue" points="110.57,-41.49 120.94,-39.3 111.47,-34.55 110.57,-41.49"/>
</g>
<!-- Node3 -->
<g id="node3" class="node">
<title>Node3</title>
<g id="a_node3"><a xlink:href="../../d8/dbe/classCalculator.html#a764f3d664f2401435b3300dcc043e139" target="_top" xlink:title="Format number for display.">
<polygon fill="white" stroke="black" points="117,-0.5 117,-19.5 261,-19.5 261,-0.5 117,-0.5"/>
<text text-anchor="middle" x="189" y="-7.5" font-family="Helvetica,sans-Serif" font-size="10.00">Calculator::formatNumber</text>
</a>
</g>
</g>
<!-- Node1&#45;&gt;Node3 -->
<g id="edge2" class="edge">
<title>Node1&#45;&gt;Node3</title>
<path fill="none" stroke="midnightblue" d="M81.15,-23.86C89.21,-22.81 97.97,-21.68 106.89,-20.52"/>
<polygon fill="midnightblue" stroke="midnightblue" points="107.53,-23.97 116.99,-19.21 106.62,-17.02 107.53,-23.97"/>
</g>
</g>
</svg>
