<?xml version="1.0" encoding="UTF-8" standalone="no"?>
<!DOCTYPE svg PUBLIC "-//W3C//DTD SVG 1.1//EN"
 "http://www.w3.org/Graphics/SVG/1.1/DTD/svg11.dtd">
<!-- Generated by graphviz version 2.43.0 (0)
 -->
<!-- Title: Calculator::tan Pages: 1 -->
<svg width="293pt" height="104pt"
 viewBox="0.00 0.00 293.00 104.00" xmlns="http://www.w3.org/2000/svg" xmlns:xlink="http://www.w3.org/1999/xlink">
<g id="graph0" class="graph" transform="scale(1 1) rotate(0) translate(4 100)">
<title>Calculator::tan</title>
<polygon fill="white" stroke="transparent" points="-4,4 -4,-100 289,-100 289,4 -4,4"/>
<!-- Node1 -->
<g id="node1" class="node">
<title>Node1</title>
<g id="a_node1"><a xlink:title="Calculate tangent in radians.">
<polygon fill="#bfbfbf" stroke="black" points="0,-38.5 0,-57.5 88,-57.5 88,-38.5 0,-38.5"/>
<text text-anchor="middle" x="44" y="-45.5" font-family="Helvetica,sans-Serif" font-size="10.00">Calculator::tan</text>
</a>
</g>
</g>
<!-- Node2 -->
<g id="node2" class="node">
<title>Node2</title>
<g id="a_node2"><a xlink:href="../../d8/dbe/classCalculator.html#add8a2ef3e8af88790326ad83b1cd541a" target="_top" xlink:title="Add entry to calculation history.">
<polygon fill="white" stroke="black" points="136.5,-76.5 136.5,-95.5 272.5,-95.5 272.5,-76.5 136.5,-76.5"/>
<text text-anchor="middle" x="204.5" y="-83.5" font-family="Helvetica,sans-Serif" font-size="10.00">Calculator::addToHistory</text>
</a>
</g>
</g>
<!-- Node1&#45;&gt;Node2 -->
<g id="edge1" class="edge">
<title>Node1&#45;&gt;Node2</title>
<path fill="none" stroke="midnightblue" d="M84.78,-57.58C97.33,-60.6 111.24,-63.94 124,-67 133.53,-69.28 143.69,-71.72 153.47,-74.05"/>
<polygon fill="midnightblue" stroke="midnightblue" points="152.92,-77.52 163.46,-76.44 154.55,-70.71 152.92,-77.52"/>
</g>
<!-- Node3 -->
<g id="node3" class="node">
<title>Node3</title>
<g id="a_node3"><a xlink:href="../../d8/dbe/classCalculator.html#abf6e7d9881622455b2a506e40082724f" target="_top" xlink:title="Convert between degrees and radians.">
<polygon fill="white" stroke="black" points="124,-38.5 124,-57.5 285,-57.5 285,-38.5 124,-38.5"/>
<text text-anchor="middle" x="204.5" y="-45.5" font-family="Helvetica,sans-Serif" font-size="10.00">Calculator::degreesToRadians</text>
</a>
</g>
</g>
<!-- Node1&#45;&gt;Node3 -->
<g id="edge2" class="edge">
<title>Node1&#45;&gt;Node3</title>
<path fill="none" stroke="midnightblue" d="M88.31,-48C96.37,-48 105.06,-48 113.92,-48"/>
<polygon fill="midnightblue" stroke="midnightblue" points="113.97,-51.5 123.97,-48 113.97,-44.5 113.97,-51.5"/>
</g>
<!-- Node4 -->
<g id="node4" class="node">
<title>Node4</title>
<g id="a_node4"><a xlink:href="../../d8/dbe/classCalculator.html#a764f3d664f2401435b3300dcc043e139" target="_top" xlink:title="Format number for display.">
<polygon fill="white" stroke="black" points="132.5,-0.5 132.5,-19.5 276.5,-19.5 276.5,-0.5 132.5,-0.5"/>
<text text-anchor="middle" x="204.5" y="-7.5" font-family="Helvetica,sans-Serif" font-size="10.00">Calculator::formatNumber</text>
</a>
</g>
</g>
<!-- Node1&#45;&gt;Node4 -->
<g id="edge3" class="edge">
<title>Node1&#45;&gt;Node4</title>
<path fill="none" stroke="midnightblue" d="M84.78,-38.42C97.33,-35.4 111.24,-32.06 124,-29 133.53,-26.72 143.69,-24.28 153.47,-21.95"/>
<polygon fill="midnightblue" stroke="midnightblue" points="154.55,-25.29 163.46,-19.56 152.92,-18.48 154.55,-25.29"/>
</g>
</g>
</svg>
