<?xml version="1.0" encoding="UTF-8" standalone="no"?>
<!DOCTYPE svg PUBLIC "-//W3C//DTD SVG 1.1//EN"
 "http://www.w3.org/Graphics/SVG/1.1/DTD/svg11.dtd">
<!-- Generated by graphviz version 2.43.0 (0)
 -->
<!-- Title: Calculator::calculate Pages: 1 -->
<svg width="453pt" height="200pt"
 viewBox="0.00 0.00 453.00 200.18" xmlns="http://www.w3.org/2000/svg" xmlns:xlink="http://www.w3.org/1999/xlink">
<g id="graph0" class="graph" transform="scale(1 1) rotate(0) translate(4 196.18)">
<title>Calculator::calculate</title>
<polygon fill="white" stroke="transparent" points="-4,4 -4,-196.18 449,-196.18 449,4 -4,4"/>
<!-- Node1 -->
<g id="node1" class="node">
<title>Node1</title>
<g id="a_node1"><a xlink:title=" ">
<polygon fill="#bfbfbf" stroke="black" points="0,-77.68 0,-96.68 116,-96.68 116,-77.68 0,-77.68"/>
<text text-anchor="middle" x="58" y="-84.68" font-family="Helvetica,sans-Serif" font-size="10.00">Calculator::calculate</text>
</a>
</g>
</g>
<!-- Node2 -->
<g id="node2" class="node">
<title>Node2</title>
<g id="a_node2"><a xlink:href="../../d8/dbe/classCalculator.html#a54ca827c4b408c795576d48503eee6aa" target="_top" xlink:title=" ">
<polygon fill="white" stroke="black" points="163.5,-20.68 163.5,-39.68 253.5,-39.68 253.5,-20.68 163.5,-20.68"/>
<text text-anchor="middle" x="208.5" y="-27.68" font-family="Helvetica,sans-Serif" font-size="10.00">Calculator::add</text>
</a>
</g>
</g>
<!-- Node1&#45;&gt;Node2 -->
<g id="edge1" class="edge">
<title>Node1&#45;&gt;Node2</title>
<path fill="none" stroke="midnightblue" d="M81.41,-77.6C100.15,-69.69 127.67,-58.31 152,-49.18 157.5,-47.12 163.33,-45.02 169.08,-43.01"/>
<polygon fill="midnightblue" stroke="midnightblue" points="170.27,-46.3 178.58,-39.73 167.99,-39.69 170.27,-46.3"/>
</g>
<!-- Node4 -->
<g id="node4" class="node">
<title>Node4</title>
<g id="a_node4"><a xlink:href="../../d8/dbe/classCalculator.html#a764f3d664f2401435b3300dcc043e139" target="_top" xlink:title="Format number for display.">
<polygon fill="white" stroke="black" points="301,-58.68 301,-77.68 445,-77.68 445,-58.68 301,-58.68"/>
<text text-anchor="middle" x="373" y="-65.68" font-family="Helvetica,sans-Serif" font-size="10.00">Calculator::formatNumber</text>
</a>
</g>
</g>
<!-- Node1&#45;&gt;Node4 -->
<g id="edge7" class="edge">
<title>Node1&#45;&gt;Node4</title>
<path fill="none" stroke="midnightblue" d="M66.69,-77.56C81.18,-60.28 114.49,-24.56 152,-11.18 199.3,5.69 216.27,0.99 265,-11.18 297.02,-19.18 329.96,-38.76 350.67,-52.74"/>
<polygon fill="midnightblue" stroke="midnightblue" points="348.81,-55.71 359.03,-58.52 352.8,-49.95 348.81,-55.71"/>
</g>
<!-- Node5 -->
<g id="node5" class="node">
<title>Node5</title>
<g id="a_node5"><a xlink:href="../../d8/dbe/classCalculator.html#a7da73cdbcc434a4f28d614f7f036b74a" target="_top" xlink:title=" ">
<polygon fill="white" stroke="black" points="157.5,-172.68 157.5,-191.68 259.5,-191.68 259.5,-172.68 157.5,-172.68"/>
<text text-anchor="middle" x="208.5" y="-179.68" font-family="Helvetica,sans-Serif" font-size="10.00">Calculator::divide</text>
</a>
</g>
</g>
<!-- Node1&#45;&gt;Node5 -->
<g id="edge4" class="edge">
<title>Node1&#45;&gt;Node5</title>
<path fill="none" stroke="midnightblue" d="M68.45,-96.9C84.37,-112.76 118.1,-144.34 152,-163.18 155.7,-165.24 159.67,-167.14 163.72,-168.86"/>
<polygon fill="midnightblue" stroke="midnightblue" points="162.63,-172.19 173.22,-172.58 165.18,-165.68 162.63,-172.19"/>
</g>
<!-- Node6 -->
<g id="node6" class="node">
<title>Node6</title>
<g id="a_node6"><a xlink:href="../../d8/dbe/classCalculator.html#a319373a53b4e84f92c207e4f7bb9dfce" target="_top" xlink:title=" ">
<polygon fill="white" stroke="black" points="152,-134.68 152,-153.68 265,-153.68 265,-134.68 152,-134.68"/>
<text text-anchor="middle" x="208.5" y="-141.68" font-family="Helvetica,sans-Serif" font-size="10.00">Calculator::multiply</text>
</a>
</g>
</g>
<!-- Node1&#45;&gt;Node6 -->
<g id="edge8" class="edge">
<title>Node1&#45;&gt;Node6</title>
<path fill="none" stroke="midnightblue" d="M81.41,-96.77C100.15,-104.68 127.67,-116.06 152,-125.18 157.5,-127.25 163.33,-129.34 169.08,-131.35"/>
<polygon fill="midnightblue" stroke="midnightblue" points="167.99,-134.68 178.58,-134.64 170.27,-128.06 167.99,-134.68"/>
</g>
<!-- Node7 -->
<g id="node7" class="node">
<title>Node7</title>
<g id="a_node7"><a xlink:href="../../d8/dbe/classCalculator.html#a6daef00d57c1e9cdcefcf017020b0cb2" target="_top" xlink:title="Calculate the power of a number.">
<polygon fill="white" stroke="black" points="157.5,-96.68 157.5,-115.68 259.5,-115.68 259.5,-96.68 157.5,-96.68"/>
<text text-anchor="middle" x="208.5" y="-103.68" font-family="Helvetica,sans-Serif" font-size="10.00">Calculator::power</text>
</a>
</g>
</g>
<!-- Node1&#45;&gt;Node7 -->
<g id="edge11" class="edge">
<title>Node1&#45;&gt;Node7</title>
<path fill="none" stroke="midnightblue" d="M116.41,-94.53C126.58,-95.83 137.18,-97.19 147.41,-98.5"/>
<polygon fill="midnightblue" stroke="midnightblue" points="147.13,-101.99 157.49,-99.79 148.02,-95.04 147.13,-101.99"/>
</g>
<!-- Node8 -->
<g id="node8" class="node">
<title>Node8</title>
<g id="a_node8"><a xlink:href="../../d8/dbe/classCalculator.html#ad8a28a8b990342d4bfde65ab85ec7596" target="_top" xlink:title=" ">
<polygon fill="white" stroke="black" points="152.5,-58.68 152.5,-77.68 264.5,-77.68 264.5,-58.68 152.5,-58.68"/>
<text text-anchor="middle" x="208.5" y="-65.68" font-family="Helvetica,sans-Serif" font-size="10.00">Calculator::subtract</text>
</a>
</g>
</g>
<!-- Node1&#45;&gt;Node8 -->
<g id="edge14" class="edge">
<title>Node1&#45;&gt;Node8</title>
<path fill="none" stroke="midnightblue" d="M116.41,-79.84C124.86,-78.76 133.62,-77.64 142.21,-76.54"/>
<polygon fill="midnightblue" stroke="midnightblue" points="142.72,-80 152.19,-75.26 141.83,-73.06 142.72,-80"/>
</g>
<!-- Node3 -->
<g id="node3" class="node">
<title>Node3</title>
<g id="a_node3"><a xlink:href="../../d8/dbe/classCalculator.html#add8a2ef3e8af88790326ad83b1cd541a" target="_top" xlink:title="Add entry to calculation history.">
<polygon fill="white" stroke="black" points="305,-96.68 305,-115.68 441,-115.68 441,-96.68 305,-96.68"/>
<text text-anchor="middle" x="373" y="-103.68" font-family="Helvetica,sans-Serif" font-size="10.00">Calculator::addToHistory</text>
</a>
</g>
</g>
<!-- Node2&#45;&gt;Node3 -->
<g id="edge2" class="edge">
<title>Node2&#45;&gt;Node3</title>
<path fill="none" stroke="midnightblue" d="M245.61,-39.71C252.33,-42.25 259.09,-45.38 265,-49.18 284.57,-61.76 281.01,-75.28 301,-87.18 304.64,-89.35 308.53,-91.27 312.54,-92.98"/>
<polygon fill="midnightblue" stroke="midnightblue" points="311.48,-96.32 322.07,-96.59 313.95,-89.77 311.48,-96.32"/>
</g>
<!-- Node2&#45;&gt;Node4 -->
<g id="edge3" class="edge">
<title>Node2&#45;&gt;Node4</title>
<path fill="none" stroke="midnightblue" d="M250.51,-39.77C272.05,-44.81 298.63,-51.03 321.44,-56.36"/>
<polygon fill="midnightblue" stroke="midnightblue" points="320.75,-59.79 331.29,-58.66 322.35,-52.98 320.75,-59.79"/>
</g>
<!-- Node5&#45;&gt;Node3 -->
<g id="edge5" class="edge">
<title>Node5&#45;&gt;Node3</title>
<path fill="none" stroke="midnightblue" d="M240.37,-172.59C248.48,-169.81 257.15,-166.59 265,-163.18 294.09,-150.55 326.01,-133.04 347.35,-120.77"/>
<polygon fill="midnightblue" stroke="midnightblue" points="349.19,-123.75 356.08,-115.7 345.68,-117.69 349.19,-123.75"/>
</g>
<!-- Node5&#45;&gt;Node4 -->
<g id="edge6" class="edge">
<title>Node5&#45;&gt;Node4</title>
<path fill="none" stroke="midnightblue" d="M250.12,-172.6C255.52,-170.14 260.67,-167.05 265,-163.18 292.87,-138.28 272.29,-111.12 301,-87.18 303.02,-85.5 305.16,-83.97 307.41,-82.57"/>
<polygon fill="midnightblue" stroke="midnightblue" points="309.27,-85.55 316.51,-77.82 306.03,-79.35 309.27,-85.55"/>
</g>
<!-- Node6&#45;&gt;Node3 -->
<g id="edge9" class="edge">
<title>Node6&#45;&gt;Node3</title>
<path fill="none" stroke="midnightblue" d="M250.51,-134.59C272.05,-129.56 298.63,-123.34 321.44,-118.01"/>
<polygon fill="midnightblue" stroke="midnightblue" points="322.35,-121.39 331.29,-115.7 320.75,-114.57 322.35,-121.39"/>
</g>
<!-- Node6&#45;&gt;Node4 -->
<g id="edge10" class="edge">
<title>Node6&#45;&gt;Node4</title>
<path fill="none" stroke="midnightblue" d="M245.61,-134.66C252.33,-132.11 259.09,-128.98 265,-125.18 284.57,-112.61 281.01,-99.08 301,-87.18 304.64,-85.02 308.53,-83.09 312.54,-81.39"/>
<polygon fill="midnightblue" stroke="midnightblue" points="313.95,-84.59 322.07,-77.78 311.48,-78.05 313.95,-84.59"/>
</g>
<!-- Node7&#45;&gt;Node3 -->
<g id="edge12" class="edge">
<title>Node7&#45;&gt;Node3</title>
<path fill="none" stroke="midnightblue" d="M259.58,-106.18C270.62,-106.18 282.56,-106.18 294.39,-106.18"/>
<polygon fill="midnightblue" stroke="midnightblue" points="294.74,-109.68 304.74,-106.18 294.74,-102.68 294.74,-109.68"/>
</g>
<!-- Node7&#45;&gt;Node4 -->
<g id="edge13" class="edge">
<title>Node7&#45;&gt;Node4</title>
<path fill="none" stroke="midnightblue" d="M250.51,-96.59C272.05,-91.56 298.63,-85.34 321.44,-80.01"/>
<polygon fill="midnightblue" stroke="midnightblue" points="322.35,-83.39 331.29,-77.7 320.75,-76.57 322.35,-83.39"/>
</g>
<!-- Node8&#45;&gt;Node3 -->
<g id="edge15" class="edge">
<title>Node8&#45;&gt;Node3</title>
<path fill="none" stroke="midnightblue" d="M250.51,-77.77C272.05,-82.81 298.63,-89.03 321.44,-94.36"/>
<polygon fill="midnightblue" stroke="midnightblue" points="320.75,-97.79 331.29,-96.66 322.35,-90.98 320.75,-97.79"/>
</g>
<!-- Node8&#45;&gt;Node4 -->
<g id="edge16" class="edge">
<title>Node8&#45;&gt;Node4</title>
<path fill="none" stroke="midnightblue" d="M264.52,-68.18C273.01,-68.18 281.94,-68.18 290.86,-68.18"/>
<polygon fill="midnightblue" stroke="midnightblue" points="290.91,-71.68 300.91,-68.18 290.91,-64.68 290.91,-71.68"/>
</g>
</g>
</svg>
