<?xml version="1.0" encoding="UTF-8" standalone="no"?>
<!DOCTYPE svg PUBLIC "-//W3C//DTD SVG 1.1//EN"
 "http://www.w3.org/Graphics/SVG/1.1/DTD/svg11.dtd">
<!-- Generated by graphviz version 2.43.0 (0)
 -->
<!-- Title: Calculator::formatNumber Pages: 1 -->
<svg width="743pt" height="569pt"
 viewBox="0.00 0.00 743.00 568.88" xmlns="http://www.w3.org/2000/svg" xmlns:xlink="http://www.w3.org/1999/xlink">
<g id="graph0" class="graph" transform="scale(1 1) rotate(0) translate(4 564.88)">
<title>Calculator::formatNumber</title>
<polygon fill="white" stroke="transparent" points="-4,4 -4,-564.88 739,-564.88 739,4 -4,4"/>
<!-- Node1 -->
<g id="node1" class="node">
<title>Node1</title>
<g id="a_node1"><a xlink:title="Format number for display.">
<polygon fill="#bfbfbf" stroke="black" points="591,-275.38 591,-294.38 735,-294.38 735,-275.38 591,-275.38"/>
<text text-anchor="middle" x="663" y="-282.38" font-family="Helvetica,sans-Serif" font-size="10.00">Calculator::formatNumber</text>
</a>
</g>
</g>
<!-- Node2 -->
<g id="node2" class="node">
<title>Node2</title>
<g id="a_node2"><a xlink:href="../../d8/dbe/classCalculator.html#a54ca827c4b408c795576d48503eee6aa" target="_top" xlink:title=" ">
<polygon fill="white" stroke="black" points="453.5,-541.38 453.5,-560.38 543.5,-560.38 543.5,-541.38 453.5,-541.38"/>
<text text-anchor="middle" x="498.5" y="-548.38" font-family="Helvetica,sans-Serif" font-size="10.00">Calculator::add</text>
</a>
</g>
</g>
<!-- Node1&#45;&gt;Node2 -->
<g id="edge1" class="edge">
<title>Node1&#45;&gt;Node2</title>
<path fill="none" stroke="midnightblue" d="M658.38,-304.6C649.12,-349.79 620.55,-461.86 555,-526.88 548.74,-533.09 540.61,-537.8 532.52,-541.34"/>
<polygon fill="midnightblue" stroke="midnightblue" points="661.85,-305.11 660.33,-294.63 654.98,-303.77 661.85,-305.11"/>
</g>
<!-- Node3 -->
<g id="node3" class="node">
<title>Node3</title>
<g id="a_node3"><a xlink:href="../../d8/dbe/classCalculator.html#a9e304d79b58ced8a6e71c5d5dea7c1b7" target="_top" xlink:title=" ">
<polygon fill="white" stroke="black" points="278.5,-408.38 278.5,-427.38 394.5,-427.38 394.5,-408.38 278.5,-408.38"/>
<text text-anchor="middle" x="336.5" y="-415.38" font-family="Helvetica,sans-Serif" font-size="10.00">Calculator::calculate</text>
</a>
</g>
</g>
<!-- Node1&#45;&gt;Node3 -->
<g id="edge6" class="edge">
<title>Node1&#45;&gt;Node3</title>
<path fill="none" stroke="midnightblue" d="M658.82,-304.64C650.64,-348.1 624.42,-451.43 555,-493.88 512.15,-520.08 489.76,-509.41 442,-493.88 401.25,-480.63 363.14,-444.84 346.41,-427.52"/>
<polygon fill="midnightblue" stroke="midnightblue" points="662.28,-305.19 660.56,-294.74 655.38,-303.98 662.28,-305.19"/>
</g>
<!-- Node6 -->
<g id="node6" class="node">
<title>Node6</title>
<g id="a_node6"><a xlink:href="../../d8/dbe/classCalculator.html#a37c0d80307a75c1b9425d675407e7914" target="_top" xlink:title="Calculate cosine in radians.">
<polygon fill="white" stroke="black" points="292,-313.38 292,-332.38 381,-332.38 381,-313.38 292,-313.38"/>
<text text-anchor="middle" x="336.5" y="-320.38" font-family="Helvetica,sans-Serif" font-size="10.00">Calculator::cos</text>
</a>
</g>
</g>
<!-- Node1&#45;&gt;Node6 -->
<g id="edge7" class="edge">
<title>Node1&#45;&gt;Node6</title>
<path fill="none" stroke="midnightblue" d="M580.77,-295.68C572.07,-296.78 563.36,-297.87 555,-298.88 494.84,-306.13 425.22,-313.66 381.27,-318.31"/>
<polygon fill="midnightblue" stroke="midnightblue" points="581.47,-299.12 590.94,-294.38 580.58,-292.18 581.47,-299.12"/>
</g>
<!-- Node7 -->
<g id="node7" class="node">
<title>Node7</title>
<g id="a_node7"><a xlink:href="../../d8/dbe/classCalculator.html#a7da73cdbcc434a4f28d614f7f036b74a" target="_top" xlink:title=" ">
<polygon fill="white" stroke="black" points="447.5,-465.38 447.5,-484.38 549.5,-484.38 549.5,-465.38 447.5,-465.38"/>
<text text-anchor="middle" x="498.5" y="-472.38" font-family="Helvetica,sans-Serif" font-size="10.00">Calculator::divide</text>
</a>
</g>
</g>
<!-- Node1&#45;&gt;Node7 -->
<g id="edge9" class="edge">
<title>Node1&#45;&gt;Node7</title>
<path fill="none" stroke="midnightblue" d="M654.99,-304.19C641.25,-339.4 607.46,-414.25 555,-455.88 550.13,-459.74 544.43,-462.84 538.58,-465.32"/>
<polygon fill="midnightblue" stroke="midnightblue" points="658.35,-305.2 658.61,-294.61 651.8,-302.73 658.35,-305.2"/>
</g>
<!-- Node8 -->
<g id="node8" class="node">
<title>Node8</title>
<g id="a_node8"><a xlink:href="../../d8/dbe/classCalculator.html#a5e4112cc094703343ecd51baf48a4549" target="_top" xlink:title="Calculate the natural logarithm.">
<polygon fill="white" stroke="black" points="113.5,-275.38 113.5,-294.38 194.5,-294.38 194.5,-275.38 113.5,-275.38"/>
<text text-anchor="middle" x="154" y="-282.38" font-family="Helvetica,sans-Serif" font-size="10.00">Calculator::ln</text>
</a>
</g>
</g>
<!-- Node1&#45;&gt;Node8 -->
<g id="edge11" class="edge">
<title>Node1&#45;&gt;Node8</title>
<path fill="none" stroke="midnightblue" d="M580.89,-284.88C470.62,-284.88 277.66,-284.88 194.73,-284.88"/>
<polygon fill="midnightblue" stroke="midnightblue" points="580.97,-288.38 590.97,-284.88 580.97,-281.38 580.97,-288.38"/>
</g>
<!-- Node9 -->
<g id="node9" class="node">
<title>Node9</title>
<g id="a_node9"><a xlink:href="../../d8/dbe/classCalculator.html#a4e60d98521a5b1e5302980919d1fcc9c" target="_top" xlink:title="Add current value to memory.">
<polygon fill="white" stroke="black" points="270.5,-237.38 270.5,-256.38 402.5,-256.38 402.5,-237.38 270.5,-237.38"/>
<text text-anchor="middle" x="336.5" y="-244.38" font-family="Helvetica,sans-Serif" font-size="10.00">Calculator::memoryAdd</text>
</a>
</g>
</g>
<!-- Node1&#45;&gt;Node9 -->
<g id="edge13" class="edge">
<title>Node1&#45;&gt;Node9</title>
<path fill="none" stroke="midnightblue" d="M580.77,-274.07C572.07,-272.97 563.36,-271.88 555,-270.88 503.89,-264.71 445.95,-258.35 402.73,-253.73"/>
<polygon fill="midnightblue" stroke="midnightblue" points="580.58,-277.58 590.94,-275.37 581.47,-270.63 580.58,-277.58"/>
</g>
<!-- Node10 -->
<g id="node10" class="node">
<title>Node10</title>
<g id="a_node10"><a xlink:href="../../d8/dbe/classCalculator.html#a4ac1ee75a8995fdec32319722dac2ee8" target="_top" xlink:title="Recall value from memory.">
<polygon fill="white" stroke="black" points="82.5,-199.38 82.5,-218.38 225.5,-218.38 225.5,-199.38 82.5,-199.38"/>
<text text-anchor="middle" x="154" y="-206.38" font-family="Helvetica,sans-Serif" font-size="10.00">Calculator::memoryRecall</text>
</a>
</g>
</g>
<!-- Node1&#45;&gt;Node10 -->
<g id="edge15" class="edge">
<title>Node1&#45;&gt;Node10</title>
<path fill="none" stroke="midnightblue" d="M622.52,-272.32C602.44,-266.22 577.57,-259.1 555,-253.88 489.51,-238.72 472.71,-236.2 406,-227.88 345.29,-220.3 275.91,-215.33 225.51,-212.38"/>
<polygon fill="midnightblue" stroke="midnightblue" points="621.66,-275.72 632.25,-275.31 623.72,-269.03 621.66,-275.72"/>
</g>
<!-- Node11 -->
<g id="node11" class="node">
<title>Node11</title>
<g id="a_node11"><a xlink:href="../../d8/dbe/classCalculator.html#af623864b6873f187d41b22440e1e25d3" target="_top" xlink:title="Store current value in memory.">
<polygon fill="white" stroke="black" points="267,-161.38 267,-180.38 406,-180.38 406,-161.38 267,-161.38"/>
<text text-anchor="middle" x="336.5" y="-168.38" font-family="Helvetica,sans-Serif" font-size="10.00">Calculator::memoryStore</text>
</a>
</g>
</g>
<!-- Node1&#45;&gt;Node11 -->
<g id="edge17" class="edge">
<title>Node1&#45;&gt;Node11</title>
<path fill="none" stroke="midnightblue" d="M647.44,-267.53C628.55,-246.35 593.41,-211.33 555,-194.88 508.03,-174.76 450.38,-169.16 406.23,-168.37"/>
<polygon fill="midnightblue" stroke="midnightblue" points="644.88,-269.91 654.08,-275.16 650.16,-265.31 644.88,-269.91"/>
</g>
<!-- Node12 -->
<g id="node12" class="node">
<title>Node12</title>
<g id="a_node12"><a xlink:href="../../d8/dbe/classCalculator.html#a81eb175a92c69c98dd2a83fb75edff2b" target="_top" xlink:title="Subtract current value from memory.">
<polygon fill="white" stroke="black" points="77,-123.38 77,-142.38 231,-142.38 231,-123.38 77,-123.38"/>
<text text-anchor="middle" x="154" y="-130.38" font-family="Helvetica,sans-Serif" font-size="10.00">Calculator::memorySubtract</text>
</a>
</g>
</g>
<!-- Node1&#45;&gt;Node12 -->
<g id="edge19" class="edge">
<title>Node1&#45;&gt;Node12</title>
<path fill="none" stroke="midnightblue" d="M651.59,-266.35C635.08,-238.99 600.09,-188.56 555,-165.88 449.96,-113.04 309.59,-115.52 226.11,-123.35"/>
<polygon fill="midnightblue" stroke="midnightblue" points="648.75,-268.43 656.82,-275.29 654.79,-264.89 648.75,-268.43"/>
</g>
<!-- Node13 -->
<g id="node13" class="node">
<title>Node13</title>
<g id="a_node13"><a xlink:href="../../d8/dbe/classCalculator.html#a319373a53b4e84f92c207e4f7bb9dfce" target="_top" xlink:title=" ">
<polygon fill="white" stroke="black" points="442,-427.38 442,-446.38 555,-446.38 555,-427.38 442,-427.38"/>
<text text-anchor="middle" x="498.5" y="-434.38" font-family="Helvetica,sans-Serif" font-size="10.00">Calculator::multiply</text>
</a>
</g>
</g>
<!-- Node1&#45;&gt;Node13 -->
<g id="edge21" class="edge">
<title>Node1&#45;&gt;Node13</title>
<path fill="none" stroke="midnightblue" d="M651.8,-303.38C635.15,-331.93 599.49,-386.67 555,-417.88 549.58,-421.68 543.33,-424.77 537.03,-427.28"/>
<polygon fill="midnightblue" stroke="midnightblue" points="654.97,-304.88 656.87,-294.46 648.89,-301.42 654.97,-304.88"/>
</g>
<!-- Node14 -->
<g id="node14" class="node">
<title>Node14</title>
<g id="a_node14"><a xlink:href="../../d8/dbe/classCalculator.html#a6daef00d57c1e9cdcefcf017020b0cb2" target="_top" xlink:title="Calculate the power of a number.">
<polygon fill="white" stroke="black" points="447.5,-389.38 447.5,-408.38 549.5,-408.38 549.5,-389.38 447.5,-389.38"/>
<text text-anchor="middle" x="498.5" y="-396.38" font-family="Helvetica,sans-Serif" font-size="10.00">Calculator::power</text>
</a>
</g>
</g>
<!-- Node1&#45;&gt;Node14 -->
<g id="edge23" class="edge">
<title>Node1&#45;&gt;Node14</title>
<path fill="none" stroke="midnightblue" d="M646.67,-302.17C627.22,-323.17 591.75,-358.44 555,-379.88 548.58,-383.62 541.31,-386.78 534.19,-389.37"/>
<polygon fill="midnightblue" stroke="midnightblue" points="649.4,-304.37 653.54,-294.62 644.22,-299.66 649.4,-304.37"/>
</g>
<!-- Node15 -->
<g id="node15" class="node">
<title>Node15</title>
<g id="a_node15"><a xlink:href="../../d8/dbe/classCalculator.html#a3e9c9f13f93ce365c30c8e6387718e91" target="_top" xlink:title="Calculate sine in radians.">
<polygon fill="white" stroke="black" points="293.5,-85.38 293.5,-104.38 379.5,-104.38 379.5,-85.38 293.5,-85.38"/>
<text text-anchor="middle" x="336.5" y="-92.38" font-family="Helvetica,sans-Serif" font-size="10.00">Calculator::sin</text>
</a>
</g>
</g>
<!-- Node1&#45;&gt;Node15 -->
<g id="edge25" class="edge">
<title>Node1&#45;&gt;Node15</title>
<path fill="none" stroke="midnightblue" d="M655.8,-265.5C643.22,-229.67 611.02,-153.54 555,-118.88 501.53,-85.8 426.3,-85.46 379.78,-89.35"/>
<polygon fill="midnightblue" stroke="midnightblue" points="652.57,-266.88 659.08,-275.24 659.21,-264.65 652.57,-266.88"/>
</g>
<!-- Node16 -->
<g id="node16" class="node">
<title>Node16</title>
<g id="a_node16"><a xlink:href="../../d8/dbe/classCalculator.html#a1264d26247e77ad966aea7371c45c314" target="_top" xlink:title="Calculate the square root of a number.">
<polygon fill="white" stroke="black" points="108.5,-47.38 108.5,-66.38 199.5,-66.38 199.5,-47.38 108.5,-47.38"/>
<text text-anchor="middle" x="154" y="-54.38" font-family="Helvetica,sans-Serif" font-size="10.00">Calculator::sqrt</text>
</a>
</g>
</g>
<!-- Node1&#45;&gt;Node16 -->
<g id="edge27" class="edge">
<title>Node1&#45;&gt;Node16</title>
<path fill="none" stroke="midnightblue" d="M658.11,-265.06C648.74,-223.25 620.66,-126.38 555,-83.88 497.45,-46.62 291.6,-50.71 199.77,-54.58"/>
<polygon fill="midnightblue" stroke="midnightblue" points="654.74,-266.03 660.23,-275.09 661.59,-264.58 654.74,-266.03"/>
</g>
<!-- Node17 -->
<g id="node17" class="node">
<title>Node17</title>
<g id="a_node17"><a xlink:href="../../d8/dbe/classCalculator.html#ad8a28a8b990342d4bfde65ab85ec7596" target="_top" xlink:title=" ">
<polygon fill="white" stroke="black" points="442.5,-351.38 442.5,-370.38 554.5,-370.38 554.5,-351.38 442.5,-351.38"/>
<text text-anchor="middle" x="498.5" y="-358.38" font-family="Helvetica,sans-Serif" font-size="10.00">Calculator::subtract</text>
</a>
</g>
</g>
<!-- Node1&#45;&gt;Node17 -->
<g id="edge29" class="edge">
<title>Node1&#45;&gt;Node17</title>
<path fill="none" stroke="midnightblue" d="M633.59,-299.11C612.12,-309.76 581.86,-324.55 555,-336.88 544.31,-341.78 532.36,-346.99 522.28,-351.29"/>
<polygon fill="midnightblue" stroke="midnightblue" points="635.4,-302.12 642.79,-294.53 632.28,-295.85 635.4,-302.12"/>
</g>
<!-- Node18 -->
<g id="node18" class="node">
<title>Node18</title>
<g id="a_node18"><a xlink:href="../../d8/dbe/classCalculator.html#a4180b40722d78518ee1d3ba8ad58f632" target="_top" xlink:title="Calculate tangent in radians.">
<polygon fill="white" stroke="black" points="292.5,-9.38 292.5,-28.38 380.5,-28.38 380.5,-9.38 292.5,-9.38"/>
<text text-anchor="middle" x="336.5" y="-16.38" font-family="Helvetica,sans-Serif" font-size="10.00">Calculator::tan</text>
</a>
</g>
</g>
<!-- Node1&#45;&gt;Node18 -->
<g id="edge31" class="edge">
<title>Node1&#45;&gt;Node18</title>
<path fill="none" stroke="midnightblue" d="M659.79,-264.99C653.38,-217.6 630.15,-97.92 555,-42.88 504.28,-5.72 428.24,-6.58 380.81,-11.82"/>
<polygon fill="midnightblue" stroke="midnightblue" points="656.35,-265.66 661.06,-275.15 663.3,-264.8 656.35,-265.66"/>
</g>
<!-- Node2&#45;&gt;Node3 -->
<g id="edge2" class="edge">
<title>Node2&#45;&gt;Node3</title>
<path fill="none" stroke="midnightblue" d="M460.32,-537.26C453.97,-534.25 447.62,-530.78 442,-526.88 399.38,-497.26 360.17,-448.25 344.6,-427.56"/>
<polygon fill="midnightblue" stroke="midnightblue" points="458.98,-540.49 469.54,-541.33 461.81,-534.09 458.98,-540.49"/>
</g>
<!-- Node4 -->
<g id="node4" class="node">
<title>Node4</title>
<g id="a_node4"><a xlink:href="../../df/d0a/main_8cpp.html#ae66f6b31b5ad750f1fe042a706a4e3d4" target="_top" xlink:title=" ">
<polygon fill="white" stroke="black" points="0,-199.38 0,-218.38 41,-218.38 41,-199.38 0,-199.38"/>
<text text-anchor="middle" x="20.5" y="-206.38" font-family="Helvetica,sans-Serif" font-size="10.00">main</text>
</a>
</g>
</g>
<!-- Node3&#45;&gt;Node4 -->
<g id="edge3" class="edge">
<title>Node3&#45;&gt;Node4</title>
<path fill="none" stroke="midnightblue" d="M275.3,-428.65C217.83,-435.33 132.07,-435.38 77,-389.88 23.03,-345.28 20.45,-249.59 21.1,-218.71"/>
<polygon fill="midnightblue" stroke="midnightblue" points="275.85,-432.11 285.33,-427.38 274.97,-425.16 275.85,-432.11"/>
</g>
<!-- Node5 -->
<g id="node5" class="node">
<title>Node5</title>
<g id="a_node5"><a xlink:href="../../d8/dbe/classCalculator.html#aecc0629ec1d4ce2c6fceb9b57c576386" target="_top" xlink:title=" ">
<polygon fill="white" stroke="black" points="86.5,-361.38 86.5,-380.38 221.5,-380.38 221.5,-361.38 86.5,-361.38"/>
<text text-anchor="middle" x="154" y="-368.38" font-family="Helvetica,sans-Serif" font-size="10.00">Calculator::setOperation</text>
</a>
</g>
</g>
<!-- Node3&#45;&gt;Node5 -->
<g id="edge4" class="edge">
<title>Node3&#45;&gt;Node5</title>
<path fill="none" stroke="midnightblue" d="M289.07,-405.79C258.82,-397.91 219.89,-387.77 191.78,-380.45"/>
<polygon fill="midnightblue" stroke="midnightblue" points="288.41,-409.23 298.97,-408.37 290.18,-402.46 288.41,-409.23"/>
</g>
<!-- Node5&#45;&gt;Node4 -->
<g id="edge5" class="edge">
<title>Node5&#45;&gt;Node4</title>
<path fill="none" stroke="midnightblue" d="M108.5,-357.49C97.17,-352.45 85.73,-345.71 77,-336.88 42.43,-301.91 27.79,-241.91 23.21,-218.57"/>
<polygon fill="midnightblue" stroke="midnightblue" points="107.36,-360.81 117.94,-361.35 110.01,-354.33 107.36,-360.81"/>
</g>
<!-- Node6&#45;&gt;Node4 -->
<g id="edge8" class="edge">
<title>Node6&#45;&gt;Node4</title>
<path fill="none" stroke="midnightblue" d="M281.96,-332.63C226.36,-339.81 139,-342.55 77,-303.88 45.07,-283.96 29.42,-238.44 23.9,-218.52"/>
<polygon fill="midnightblue" stroke="midnightblue" points="282.53,-336.08 291.96,-331.24 281.57,-329.15 282.53,-336.08"/>
</g>
<!-- Node7&#45;&gt;Node3 -->
<g id="edge10" class="edge">
<title>Node7&#45;&gt;Node3</title>
<path fill="none" stroke="midnightblue" d="M459.53,-461.99C453.66,-459.96 447.66,-457.87 442,-455.88 415.06,-446.37 384.34,-435.15 363.22,-427.38"/>
<polygon fill="midnightblue" stroke="midnightblue" points="458.64,-465.38 469.23,-465.31 460.91,-458.76 458.64,-465.38"/>
</g>
<!-- Node8&#45;&gt;Node4 -->
<g id="edge12" class="edge">
<title>Node8&#45;&gt;Node4</title>
<path fill="none" stroke="midnightblue" d="M103.79,-272.89C94.57,-269.67 85.24,-265.7 77,-260.88 57.63,-249.54 39.51,-230.33 29.52,-218.7"/>
<polygon fill="midnightblue" stroke="midnightblue" points="102.72,-276.22 113.31,-275.98 104.88,-269.56 102.72,-276.22"/>
</g>
<!-- Node9&#45;&gt;Node4 -->
<g id="edge14" class="edge">
<title>Node9&#45;&gt;Node4</title>
<path fill="none" stroke="midnightblue" d="M260.2,-246.41C208.25,-244.86 137.86,-240.32 77,-227.88 64.83,-225.39 51.65,-220.96 41.19,-217"/>
<polygon fill="midnightblue" stroke="midnightblue" points="260.24,-249.92 270.33,-246.69 260.43,-242.92 260.24,-249.92"/>
</g>
<!-- Node10&#45;&gt;Node4 -->
<g id="edge16" class="edge">
<title>Node10&#45;&gt;Node4</title>
<path fill="none" stroke="midnightblue" d="M72.01,-208.88C60.51,-208.88 49.67,-208.88 41,-208.88"/>
<polygon fill="midnightblue" stroke="midnightblue" points="72.25,-212.38 82.25,-208.88 72.25,-205.38 72.25,-212.38"/>
</g>
<!-- Node11&#45;&gt;Node4 -->
<g id="edge18" class="edge">
<title>Node11&#45;&gt;Node4</title>
<path fill="none" stroke="midnightblue" d="M256.73,-171.45C205.15,-173.09 136.52,-177.71 77,-189.88 64.83,-192.36 51.65,-196.8 41.19,-200.75"/>
<polygon fill="midnightblue" stroke="midnightblue" points="256.92,-174.94 266.81,-171.15 256.72,-167.94 256.92,-174.94"/>
</g>
<!-- Node12&#45;&gt;Node4 -->
<g id="edge20" class="edge">
<title>Node12&#45;&gt;Node4</title>
<path fill="none" stroke="midnightblue" d="M101.46,-145.69C93,-148.76 84.55,-152.46 77,-156.88 57.63,-168.21 39.51,-187.42 29.52,-199.05"/>
<polygon fill="midnightblue" stroke="midnightblue" points="102.59,-149.01 110.95,-142.5 100.36,-142.37 102.59,-149.01"/>
</g>
<!-- Node13&#45;&gt;Node3 -->
<g id="edge22" class="edge">
<title>Node13&#45;&gt;Node3</title>
<path fill="none" stroke="midnightblue" d="M431.76,-429.07C419.41,-427.6 406.6,-426.08 394.54,-424.65"/>
<polygon fill="midnightblue" stroke="midnightblue" points="431.65,-432.58 441.99,-430.28 432.47,-425.63 431.65,-432.58"/>
</g>
<!-- Node14&#45;&gt;Node3 -->
<g id="edge24" class="edge">
<title>Node14&#45;&gt;Node3</title>
<path fill="none" stroke="midnightblue" d="M437.34,-406.02C423.39,-407.68 408.58,-409.44 394.76,-411.08"/>
<polygon fill="midnightblue" stroke="midnightblue" points="437.8,-409.49 447.31,-404.84 436.97,-402.54 437.8,-409.49"/>
</g>
<!-- Node15&#45;&gt;Node4 -->
<g id="edge26" class="edge">
<title>Node15&#45;&gt;Node4</title>
<path fill="none" stroke="midnightblue" d="M283.4,-85.31C227.88,-78 139.54,-74.86 77,-113.88 45.07,-133.79 29.42,-179.31 23.9,-199.24"/>
<polygon fill="midnightblue" stroke="midnightblue" points="282.98,-88.79 293.37,-86.72 283.96,-81.86 282.98,-88.79"/>
</g>
<!-- Node16&#45;&gt;Node4 -->
<g id="edge28" class="edge">
<title>Node16&#45;&gt;Node4</title>
<path fill="none" stroke="midnightblue" d="M98.84,-67.58C90.89,-70.89 83.28,-75.22 77,-80.88 40.3,-113.97 26.85,-175.6 22.9,-199.27"/>
<polygon fill="midnightblue" stroke="midnightblue" points="100.06,-70.86 108.26,-64.15 97.67,-64.28 100.06,-70.86"/>
</g>
<!-- Node17&#45;&gt;Node3 -->
<g id="edge30" class="edge">
<title>Node17&#45;&gt;Node3</title>
<path fill="none" stroke="midnightblue" d="M459.53,-373.77C453.66,-375.79 447.66,-377.88 442,-379.88 415.06,-389.39 384.34,-400.6 363.22,-408.37"/>
<polygon fill="midnightblue" stroke="midnightblue" points="460.91,-377 469.23,-370.44 458.64,-370.38 460.91,-377"/>
</g>
<!-- Node18&#45;&gt;Node4 -->
<g id="edge32" class="edge">
<title>Node18&#45;&gt;Node4</title>
<path fill="none" stroke="midnightblue" d="M285.51,-7.45C228.75,2.42 136.33,8.66 77,-37.88 24.94,-78.72 21.04,-169.19 21.24,-199.08"/>
<polygon fill="midnightblue" stroke="midnightblue" points="285.21,-10.96 295.68,-9.32 286.48,-4.07 285.21,-10.96"/>
</g>
</g>
</svg>
