<?xml version="1.0" encoding="UTF-8" standalone="no"?>
<!DOCTYPE svg PUBLIC "-//W3C//DTD SVG 1.1//EN"
 "http://www.w3.org/Graphics/SVG/1.1/DTD/svg11.dtd">
<!-- Generated by graphviz version 2.43.0 (0)
 -->
<!-- Title: Calculator::addToHistory Pages: 1 -->
<svg width="735pt" height="579pt"
 viewBox="0.00 0.00 735.00 579.13" xmlns="http://www.w3.org/2000/svg" xmlns:xlink="http://www.w3.org/1999/xlink">
<g id="graph0" class="graph" transform="scale(1 1) rotate(0) translate(4 575.13)">
<title>Calculator::addToHistory</title>
<polygon fill="white" stroke="transparent" points="-4,4 -4,-575.13 731,-575.13 731,4 -4,4"/>
<!-- Node1 -->
<g id="node1" class="node">
<title>Node1</title>
<g id="a_node1"><a xlink:title="Add entry to calculation history.">
<polygon fill="#bfbfbf" stroke="black" points="591,-285.63 591,-304.63 727,-304.63 727,-285.63 591,-285.63"/>
<text text-anchor="middle" x="659" y="-292.63" font-family="Helvetica,sans-Serif" font-size="10.00">Calculator::addToHistory</text>
</a>
</g>
</g>
<!-- Node2 -->
<g id="node2" class="node">
<title>Node2</title>
<g id="a_node2"><a xlink:href="../../d8/dbe/classCalculator.html#a54ca827c4b408c795576d48503eee6aa" target="_top" xlink:title=" ">
<polygon fill="white" stroke="black" points="453.5,-551.63 453.5,-570.63 543.5,-570.63 543.5,-551.63 453.5,-551.63"/>
<text text-anchor="middle" x="498.5" y="-558.63" font-family="Helvetica,sans-Serif" font-size="10.00">Calculator::add</text>
</a>
</g>
</g>
<!-- Node1&#45;&gt;Node2 -->
<g id="edge1" class="edge">
<title>Node1&#45;&gt;Node2</title>
<path fill="none" stroke="midnightblue" d="M655.36,-314.68C648.1,-360.9 623.6,-477.86 555,-542.13 550.84,-546.02 545.84,-549.13 540.57,-551.59"/>
<polygon fill="midnightblue" stroke="midnightblue" points="658.83,-315.16 656.82,-304.75 651.9,-314.14 658.83,-315.16"/>
</g>
<!-- Node6 -->
<g id="node6" class="node">
<title>Node6</title>
<g id="a_node6"><a xlink:href="../../d8/dbe/classCalculator.html#a37c0d80307a75c1b9425d675407e7914" target="_top" xlink:title="Calculate cosine in radians.">
<polygon fill="white" stroke="black" points="284.5,-361.63 284.5,-380.63 373.5,-380.63 373.5,-361.63 284.5,-361.63"/>
<text text-anchor="middle" x="329" y="-368.63" font-family="Helvetica,sans-Serif" font-size="10.00">Calculator::cos</text>
</a>
</g>
</g>
<!-- Node1&#45;&gt;Node6 -->
<g id="edge6" class="edge">
<title>Node1&#45;&gt;Node6</title>
<path fill="none" stroke="midnightblue" d="M634.55,-310.06C614.31,-322.19 583.86,-338.61 555,-347.13 493.77,-365.19 419.62,-369.99 373.62,-371.09"/>
<polygon fill="midnightblue" stroke="midnightblue" points="636.65,-312.88 643.36,-304.68 633,-306.91 636.65,-312.88"/>
</g>
<!-- Node7 -->
<g id="node7" class="node">
<title>Node7</title>
<g id="a_node7"><a xlink:href="../../d8/dbe/classCalculator.html#a7da73cdbcc434a4f28d614f7f036b74a" target="_top" xlink:title=" ">
<polygon fill="white" stroke="black" points="447.5,-513.63 447.5,-532.63 549.5,-532.63 549.5,-513.63 447.5,-513.63"/>
<text text-anchor="middle" x="498.5" y="-520.63" font-family="Helvetica,sans-Serif" font-size="10.00">Calculator::divide</text>
</a>
</g>
</g>
<!-- Node1&#45;&gt;Node7 -->
<g id="edge8" class="edge">
<title>Node1&#45;&gt;Node7</title>
<path fill="none" stroke="midnightblue" d="M653.64,-314.96C643.56,-356.16 614.82,-451.51 555,-504.13 550.56,-508.03 545.29,-511.14 539.78,-513.61"/>
<polygon fill="midnightblue" stroke="midnightblue" points="657.08,-315.61 655.95,-305.07 650.26,-314.01 657.08,-315.61"/>
</g>
<!-- Node8 -->
<g id="node8" class="node">
<title>Node8</title>
<g id="a_node8"><a xlink:href="../../d8/dbe/classCalculator.html#a5e4112cc094703343ecd51baf48a4549" target="_top" xlink:title="Calculate the natural logarithm.">
<polygon fill="white" stroke="black" points="106,-323.63 106,-342.63 187,-342.63 187,-323.63 106,-323.63"/>
<text text-anchor="middle" x="146.5" y="-330.63" font-family="Helvetica,sans-Serif" font-size="10.00">Calculator::ln</text>
</a>
</g>
</g>
<!-- Node1&#45;&gt;Node8 -->
<g id="edge10" class="edge">
<title>Node1&#45;&gt;Node8</title>
<path fill="none" stroke="midnightblue" d="M583.58,-305.93C573.98,-307.12 564.26,-308.22 555,-309.13 420.45,-322.21 260.17,-329.12 187.2,-331.79"/>
<polygon fill="midnightblue" stroke="midnightblue" points="584.05,-309.39 593.53,-304.66 583.17,-302.45 584.05,-309.39"/>
</g>
<!-- Node9 -->
<g id="node9" class="node">
<title>Node9</title>
<g id="a_node9"><a xlink:href="../../d8/dbe/classCalculator.html#a4e60d98521a5b1e5302980919d1fcc9c" target="_top" xlink:title="Add current value to memory.">
<polygon fill="white" stroke="black" points="263,-285.63 263,-304.63 395,-304.63 395,-285.63 263,-285.63"/>
<text text-anchor="middle" x="329" y="-292.63" font-family="Helvetica,sans-Serif" font-size="10.00">Calculator::memoryAdd</text>
</a>
</g>
</g>
<!-- Node1&#45;&gt;Node9 -->
<g id="edge12" class="edge">
<title>Node1&#45;&gt;Node9</title>
<path fill="none" stroke="midnightblue" d="M580.53,-295.13C524.08,-295.13 448.46,-295.13 395.12,-295.13"/>
<polygon fill="midnightblue" stroke="midnightblue" points="580.83,-298.63 590.83,-295.13 580.83,-291.63 580.83,-298.63"/>
</g>
<!-- Node10 -->
<g id="node10" class="node">
<title>Node10</title>
<g id="a_node10"><a xlink:href="../../d8/dbe/classCalculator.html#a7a698a9016330e469b73d97856de275f" target="_top" xlink:title="Clear memory.">
<polygon fill="white" stroke="black" points="77,-247.63 77,-266.63 216,-266.63 216,-247.63 77,-247.63"/>
<text text-anchor="middle" x="146.5" y="-254.63" font-family="Helvetica,sans-Serif" font-size="10.00">Calculator::memoryClear</text>
</a>
</g>
</g>
<!-- Node1&#45;&gt;Node10 -->
<g id="edge14" class="edge">
<title>Node1&#45;&gt;Node10</title>
<path fill="none" stroke="midnightblue" d="M580.82,-289.27C530.94,-285.49 464.64,-280.49 406,-276.13 341.6,-271.33 268.18,-265.94 216.08,-262.13"/>
<polygon fill="midnightblue" stroke="midnightblue" points="580.65,-292.77 590.88,-290.03 581.18,-285.79 580.65,-292.77"/>
</g>
<!-- Node11 -->
<g id="node11" class="node">
<title>Node11</title>
<g id="a_node11"><a xlink:href="../../d8/dbe/classCalculator.html#a4ac1ee75a8995fdec32319722dac2ee8" target="_top" xlink:title="Recall value from memory.">
<polygon fill="white" stroke="black" points="257.5,-209.63 257.5,-228.63 400.5,-228.63 400.5,-209.63 257.5,-209.63"/>
<text text-anchor="middle" x="329" y="-216.63" font-family="Helvetica,sans-Serif" font-size="10.00">Calculator::memoryRecall</text>
</a>
</g>
</g>
<!-- Node1&#45;&gt;Node11 -->
<g id="edge16" class="edge">
<title>Node1&#45;&gt;Node11</title>
<path fill="none" stroke="midnightblue" d="M634.55,-280.19C614.31,-268.07 583.86,-251.64 555,-243.13 504.7,-228.29 445.67,-222.4 400.7,-220.16"/>
<polygon fill="midnightblue" stroke="midnightblue" points="633,-283.34 643.36,-285.57 636.65,-277.37 633,-283.34"/>
</g>
<!-- Node12 -->
<g id="node12" class="node">
<title>Node12</title>
<g id="a_node12"><a xlink:href="../../d8/dbe/classCalculator.html#af623864b6873f187d41b22440e1e25d3" target="_top" xlink:title="Store current value in memory.">
<polygon fill="white" stroke="black" points="77,-171.63 77,-190.63 216,-190.63 216,-171.63 77,-171.63"/>
<text text-anchor="middle" x="146.5" y="-178.63" font-family="Helvetica,sans-Serif" font-size="10.00">Calculator::memoryStore</text>
</a>
</g>
</g>
<!-- Node1&#45;&gt;Node12 -->
<g id="edge18" class="edge">
<title>Node1&#45;&gt;Node12</title>
<path fill="none" stroke="midnightblue" d="M641.24,-278.44C622.13,-260.52 589.11,-232.8 555,-219.13 442.72,-174.11 299.55,-172.17 216.24,-175.91"/>
<polygon fill="midnightblue" stroke="midnightblue" points="638.9,-281.04 648.54,-285.44 643.75,-275.99 638.9,-281.04"/>
</g>
<!-- Node13 -->
<g id="node13" class="node">
<title>Node13</title>
<g id="a_node13"><a xlink:href="../../d8/dbe/classCalculator.html#a81eb175a92c69c98dd2a83fb75edff2b" target="_top" xlink:title="Subtract current value from memory.">
<polygon fill="white" stroke="black" points="252,-133.63 252,-152.63 406,-152.63 406,-133.63 252,-133.63"/>
<text text-anchor="middle" x="329" y="-140.63" font-family="Helvetica,sans-Serif" font-size="10.00">Calculator::memorySubtract</text>
</a>
</g>
</g>
<!-- Node1&#45;&gt;Node13 -->
<g id="edge20" class="edge">
<title>Node1&#45;&gt;Node13</title>
<path fill="none" stroke="midnightblue" d="M649.14,-276.54C634.22,-247.56 601.13,-192.31 555,-167.13 509.83,-142.47 451.97,-136.76 406.24,-137.07"/>
<polygon fill="midnightblue" stroke="midnightblue" points="646.06,-278.21 653.65,-285.61 652.33,-275.09 646.06,-278.21"/>
</g>
<!-- Node14 -->
<g id="node14" class="node">
<title>Node14</title>
<g id="a_node14"><a xlink:href="../../d8/dbe/classCalculator.html#a319373a53b4e84f92c207e4f7bb9dfce" target="_top" xlink:title=" ">
<polygon fill="white" stroke="black" points="442,-475.63 442,-494.63 555,-494.63 555,-475.63 442,-475.63"/>
<text text-anchor="middle" x="498.5" y="-482.63" font-family="Helvetica,sans-Serif" font-size="10.00">Calculator::multiply</text>
</a>
</g>
</g>
<!-- Node1&#45;&gt;Node14 -->
<g id="edge22" class="edge">
<title>Node1&#45;&gt;Node14</title>
<path fill="none" stroke="midnightblue" d="M651.46,-314.44C638.56,-349.65 606.56,-424.49 555,-466.13 550.25,-469.96 544.67,-473.05 538.92,-475.52"/>
<polygon fill="midnightblue" stroke="midnightblue" points="654.81,-315.46 654.85,-304.86 648.21,-313.12 654.81,-315.46"/>
</g>
<!-- Node15 -->
<g id="node15" class="node">
<title>Node15</title>
<g id="a_node15"><a xlink:href="../../d8/dbe/classCalculator.html#a6daef00d57c1e9cdcefcf017020b0cb2" target="_top" xlink:title="Calculate the power of a number.">
<polygon fill="white" stroke="black" points="447.5,-437.63 447.5,-456.63 549.5,-456.63 549.5,-437.63 447.5,-437.63"/>
<text text-anchor="middle" x="498.5" y="-444.63" font-family="Helvetica,sans-Serif" font-size="10.00">Calculator::power</text>
</a>
</g>
</g>
<!-- Node1&#45;&gt;Node15 -->
<g id="edge24" class="edge">
<title>Node1&#45;&gt;Node15</title>
<path fill="none" stroke="midnightblue" d="M648.35,-313.64C632.57,-342.21 598.56,-396.97 555,-428.13 549.62,-431.98 543.39,-435.1 537.09,-437.61"/>
<polygon fill="midnightblue" stroke="midnightblue" points="651.5,-315.18 653.16,-304.71 645.34,-311.86 651.5,-315.18"/>
</g>
<!-- Node16 -->
<g id="node16" class="node">
<title>Node16</title>
<g id="a_node16"><a xlink:href="../../d8/dbe/classCalculator.html#a3e9c9f13f93ce365c30c8e6387718e91" target="_top" xlink:title="Calculate sine in radians.">
<polygon fill="white" stroke="black" points="103.5,-95.63 103.5,-114.63 189.5,-114.63 189.5,-95.63 103.5,-95.63"/>
<text text-anchor="middle" x="146.5" y="-102.63" font-family="Helvetica,sans-Serif" font-size="10.00">Calculator::sin</text>
</a>
</g>
</g>
<!-- Node1&#45;&gt;Node16 -->
<g id="edge26" class="edge">
<title>Node1&#45;&gt;Node16</title>
<path fill="none" stroke="midnightblue" d="M652.03,-275.64C640.07,-240.36 609.54,-166.55 555,-134.13 494.26,-98.02 281.22,-100.55 189.74,-103.45"/>
<polygon fill="midnightblue" stroke="midnightblue" points="648.74,-276.83 655.15,-285.27 655.39,-274.67 648.74,-276.83"/>
</g>
<!-- Node17 -->
<g id="node17" class="node">
<title>Node17</title>
<g id="a_node17"><a xlink:href="../../d8/dbe/classCalculator.html#a1264d26247e77ad966aea7371c45c314" target="_top" xlink:title="Calculate the square root of a number.">
<polygon fill="white" stroke="black" points="283.5,-57.63 283.5,-76.63 374.5,-76.63 374.5,-57.63 283.5,-57.63"/>
<text text-anchor="middle" x="329" y="-64.63" font-family="Helvetica,sans-Serif" font-size="10.00">Calculator::sqrt</text>
</a>
</g>
</g>
<!-- Node1&#45;&gt;Node17 -->
<g id="edge28" class="edge">
<title>Node1&#45;&gt;Node17</title>
<path fill="none" stroke="midnightblue" d="M654.47,-275.24C645.86,-233.26 619.58,-135.76 555,-91.13 501.68,-54.27 423.62,-54.96 374.87,-60.1"/>
<polygon fill="midnightblue" stroke="midnightblue" points="651.08,-276.15 656.41,-285.31 657.95,-274.83 651.08,-276.15"/>
</g>
<!-- Node18 -->
<g id="node18" class="node">
<title>Node18</title>
<g id="a_node18"><a xlink:href="../../d8/dbe/classCalculator.html#ad8a28a8b990342d4bfde65ab85ec7596" target="_top" xlink:title=" ">
<polygon fill="white" stroke="black" points="442.5,-399.63 442.5,-418.63 554.5,-418.63 554.5,-399.63 442.5,-399.63"/>
<text text-anchor="middle" x="498.5" y="-406.63" font-family="Helvetica,sans-Serif" font-size="10.00">Calculator::subtract</text>
</a>
</g>
</g>
<!-- Node1&#45;&gt;Node18 -->
<g id="edge30" class="edge">
<title>Node1&#45;&gt;Node18</title>
<path fill="none" stroke="midnightblue" d="M641.77,-312.21C622.5,-331.77 588.71,-363.84 555,-385.13 546.03,-390.79 535.5,-395.72 526.04,-399.61"/>
<polygon fill="midnightblue" stroke="midnightblue" points="644.41,-314.51 648.87,-304.9 639.39,-309.64 644.41,-314.51"/>
</g>
<!-- Node19 -->
<g id="node19" class="node">
<title>Node19</title>
<g id="a_node19"><a xlink:href="../../d8/dbe/classCalculator.html#a4180b40722d78518ee1d3ba8ad58f632" target="_top" xlink:title="Calculate tangent in radians.">
<polygon fill="white" stroke="black" points="102.5,-19.63 102.5,-38.63 190.5,-38.63 190.5,-19.63 102.5,-19.63"/>
<text text-anchor="middle" x="146.5" y="-26.63" font-family="Helvetica,sans-Serif" font-size="10.00">Calculator::tan</text>
</a>
</g>
</g>
<!-- Node1&#45;&gt;Node19 -->
<g id="edge32" class="edge">
<title>Node1&#45;&gt;Node19</title>
<path fill="none" stroke="midnightblue" d="M656.31,-275.43C651.07,-227.99 630.58,-107.41 555,-54.13 441.02,26.23 261.54,-2.16 184.57,-19.61"/>
<polygon fill="midnightblue" stroke="midnightblue" points="652.85,-275.98 657.32,-285.59 659.81,-275.29 652.85,-275.98"/>
</g>
<!-- Node3 -->
<g id="node3" class="node">
<title>Node3</title>
<g id="a_node3"><a xlink:href="../../d8/dbe/classCalculator.html#a9e304d79b58ced8a6e71c5d5dea7c1b7" target="_top" xlink:title=" ">
<polygon fill="white" stroke="black" points="271,-437.63 271,-456.63 387,-456.63 387,-437.63 271,-437.63"/>
<text text-anchor="middle" x="329" y="-444.63" font-family="Helvetica,sans-Serif" font-size="10.00">Calculator::calculate</text>
</a>
</g>
</g>
<!-- Node2&#45;&gt;Node3 -->
<g id="edge2" class="edge">
<title>Node2&#45;&gt;Node3</title>
<path fill="none" stroke="midnightblue" d="M453.68,-547.87C449.64,-546.14 445.69,-544.22 442,-542.13 398.99,-517.69 356.85,-475.73 338.96,-456.84"/>
<polygon fill="midnightblue" stroke="midnightblue" points="452.58,-551.2 463.17,-551.62 455.15,-544.69 452.58,-551.2"/>
</g>
<!-- Node4 -->
<g id="node4" class="node">
<title>Node4</title>
<g id="a_node4"><a xlink:href="../../df/d0a/main_8cpp.html#ae66f6b31b5ad750f1fe042a706a4e3d4" target="_top" xlink:title=" ">
<polygon fill="white" stroke="black" points="0,-228.63 0,-247.63 41,-247.63 41,-228.63 0,-228.63"/>
<text text-anchor="middle" x="20.5" y="-235.63" font-family="Helvetica,sans-Serif" font-size="10.00">main</text>
</a>
</g>
</g>
<!-- Node3&#45;&gt;Node4 -->
<g id="edge3" class="edge">
<title>Node3&#45;&gt;Node4</title>
<path fill="none" stroke="midnightblue" d="M278.74,-458.48C223.34,-468.15 133.73,-474.1 77,-428.13 19.87,-381.82 19.47,-280.16 20.88,-248.05"/>
<polygon fill="midnightblue" stroke="midnightblue" points="279.47,-461.9 288.67,-456.64 278.2,-455.02 279.47,-461.9"/>
</g>
<!-- Node5 -->
<g id="node5" class="node">
<title>Node5</title>
<g id="a_node5"><a xlink:href="../../d8/dbe/classCalculator.html#aecc0629ec1d4ce2c6fceb9b57c576386" target="_top" xlink:title=" ">
<polygon fill="white" stroke="black" points="79,-399.63 79,-418.63 214,-418.63 214,-399.63 79,-399.63"/>
<text text-anchor="middle" x="146.5" y="-406.63" font-family="Helvetica,sans-Serif" font-size="10.00">Calculator::setOperation</text>
</a>
</g>
</g>
<!-- Node3&#45;&gt;Node5 -->
<g id="edge4" class="edge">
<title>Node3&#45;&gt;Node5</title>
<path fill="none" stroke="midnightblue" d="M272.52,-435.44C246.92,-430.06 216.92,-423.74 192.72,-418.65"/>
<polygon fill="midnightblue" stroke="midnightblue" points="271.95,-438.9 282.45,-437.54 273.39,-432.05 271.95,-438.9"/>
</g>
<!-- Node5&#45;&gt;Node4 -->
<g id="edge5" class="edge">
<title>Node5&#45;&gt;Node4</title>
<path fill="none" stroke="midnightblue" d="M90.87,-395.16C85.81,-392.4 81.06,-389.09 77,-385.13 36.59,-345.68 25.25,-273.91 22.38,-247.88"/>
<polygon fill="midnightblue" stroke="midnightblue" points="89.73,-398.49 100.27,-399.58 92.71,-392.16 89.73,-398.49"/>
</g>
<!-- Node6&#45;&gt;Node4 -->
<g id="edge7" class="edge">
<title>Node6&#45;&gt;Node4</title>
<path fill="none" stroke="midnightblue" d="M274.12,-381.53C219.6,-388.98 135.24,-391.69 77,-352.13 40.22,-327.14 26.93,-270.61 22.96,-247.87"/>
<polygon fill="midnightblue" stroke="midnightblue" points="274.89,-384.96 284.28,-380.05 273.88,-378.03 274.89,-384.96"/>
</g>
<!-- Node7&#45;&gt;Node3 -->
<g id="edge9" class="edge">
<title>Node7&#45;&gt;Node3</title>
<path fill="none" stroke="midnightblue" d="M457.17,-510.07C452.02,-508.18 446.86,-506.18 442,-504.13 407.44,-489.5 368.76,-468.8 347.1,-456.79"/>
<polygon fill="midnightblue" stroke="midnightblue" points="456.37,-513.5 466.96,-513.53 458.7,-506.9 456.37,-513.5"/>
</g>
<!-- Node8&#45;&gt;Node4 -->
<g id="edge11" class="edge">
<title>Node8&#45;&gt;Node4</title>
<path fill="none" stroke="midnightblue" d="M96.52,-319.87C89.65,-316.92 82.91,-313.37 77,-309.13 53.61,-292.35 35.17,-263.01 26.65,-247.83"/>
<polygon fill="midnightblue" stroke="midnightblue" points="95.35,-323.17 105.93,-323.54 97.89,-316.64 95.35,-323.17"/>
</g>
<!-- Node9&#45;&gt;Node4 -->
<g id="edge13" class="edge">
<title>Node9&#45;&gt;Node4</title>
<path fill="none" stroke="midnightblue" d="M252.65,-299.49C201.69,-300.04 133.6,-296.02 77,-276.13 59.59,-270.01 42.53,-256.97 32.02,-247.88"/>
<polygon fill="midnightblue" stroke="midnightblue" points="253,-302.99 262.94,-299.32 252.88,-295.99 253,-302.99"/>
</g>
<!-- Node10&#45;&gt;Node4 -->
<g id="edge15" class="edge">
<title>Node10&#45;&gt;Node4</title>
<path fill="none" stroke="midnightblue" d="M73.13,-246.04C61.31,-244.23 50.01,-242.49 41.01,-241.12"/>
<polygon fill="midnightblue" stroke="midnightblue" points="72.72,-249.51 83.14,-247.57 73.78,-242.6 72.72,-249.51"/>
</g>
<!-- Node11&#45;&gt;Node4 -->
<g id="edge17" class="edge">
<title>Node11&#45;&gt;Node4</title>
<path fill="none" stroke="midnightblue" d="M247.22,-224.13C177.58,-228.45 81.99,-234.38 41.22,-236.9"/>
<polygon fill="midnightblue" stroke="midnightblue" points="247.53,-227.62 257.3,-223.51 247.1,-220.63 247.53,-227.62"/>
</g>
<!-- Node12&#45;&gt;Node4 -->
<g id="edge19" class="edge">
<title>Node12&#45;&gt;Node4</title>
<path fill="none" stroke="midnightblue" d="M104.27,-194.07C95.15,-197.35 85.64,-201.09 77,-205.13 62.37,-211.95 46.64,-221.54 35.67,-228.62"/>
<polygon fill="midnightblue" stroke="midnightblue" points="105.65,-197.3 113.95,-190.71 103.35,-190.69 105.65,-197.3"/>
</g>
<!-- Node13&#45;&gt;Node4 -->
<g id="edge21" class="edge">
<title>Node13&#45;&gt;Node4</title>
<path fill="none" stroke="midnightblue" d="M251.62,-132.88C199.27,-129.54 129.98,-132.64 77,-162.13 49.87,-177.22 32.44,-211.77 25.26,-228.59"/>
<polygon fill="midnightblue" stroke="midnightblue" points="251.62,-136.39 261.85,-133.62 252.13,-129.41 251.62,-136.39"/>
</g>
<!-- Node14&#45;&gt;Node3 -->
<g id="edge23" class="edge">
<title>Node14&#45;&gt;Node3</title>
<path fill="none" stroke="midnightblue" d="M445.38,-473.3C421.77,-467.94 394.22,-461.69 371.96,-456.65"/>
<polygon fill="midnightblue" stroke="midnightblue" points="444.71,-476.74 455.23,-475.54 446.25,-469.91 444.71,-476.74"/>
</g>
<!-- Node15&#45;&gt;Node3 -->
<g id="edge25" class="edge">
<title>Node15&#45;&gt;Node3</title>
<path fill="none" stroke="midnightblue" d="M436.83,-447.13C420.66,-447.13 403.25,-447.13 387.27,-447.13"/>
<polygon fill="midnightblue" stroke="midnightblue" points="437.24,-450.63 447.24,-447.13 437.24,-443.63 437.24,-450.63"/>
</g>
<!-- Node16&#45;&gt;Node4 -->
<g id="edge27" class="edge">
<title>Node16&#45;&gt;Node4</title>
<path fill="none" stroke="midnightblue" d="M93.67,-118.37C87.65,-121.28 81.92,-124.83 77,-129.13 45.19,-156.94 29.3,-207.38 23.8,-228.46"/>
<polygon fill="midnightblue" stroke="midnightblue" points="95.46,-121.41 103.29,-114.28 92.72,-114.97 95.46,-121.41"/>
</g>
<!-- Node17&#45;&gt;Node4 -->
<g id="edge29" class="edge">
<title>Node17&#45;&gt;Node4</title>
<path fill="none" stroke="midnightblue" d="M275.99,-55.93C220.87,-47.22 134.07,-42.91 77,-86.13 29.97,-121.74 22.75,-201.21 21.68,-228.62"/>
<polygon fill="midnightblue" stroke="midnightblue" points="275.46,-59.39 285.9,-57.6 276.62,-52.48 275.46,-59.39"/>
</g>
<!-- Node18&#45;&gt;Node3 -->
<g id="edge31" class="edge">
<title>Node18&#45;&gt;Node3</title>
<path fill="none" stroke="midnightblue" d="M445.38,-420.95C421.77,-426.31 394.22,-432.56 371.96,-437.61"/>
<polygon fill="midnightblue" stroke="midnightblue" points="446.25,-424.34 455.23,-418.71 444.71,-417.51 446.25,-424.34"/>
</g>
<!-- Node19&#45;&gt;Node4 -->
<g id="edge33" class="edge">
<title>Node19&#45;&gt;Node4</title>
<path fill="none" stroke="midnightblue" d="M92.9,-41.56C87.01,-44.61 81.51,-48.4 77,-53.13 27.66,-104.77 22,-198.54 21.5,-228.59"/>
<polygon fill="midnightblue" stroke="midnightblue" points="94.68,-44.6 102.41,-37.36 91.85,-38.2 94.68,-44.6"/>
</g>
</g>
</svg>
