<?xml version="1.0" encoding="UTF-8" standalone="no"?>
<!DOCTYPE svg PUBLIC "-//W3C//DTD SVG 1.1//EN"
 "http://www.w3.org/Graphics/SVG/1.1/DTD/svg11.dtd">
<!-- Generated by graphviz version 2.43.0 (0)
 -->
<!-- Title: Calculator::memoryStore Pages: 1 -->
<svg width="327pt" height="66pt"
 viewBox="0.00 0.00 327.00 66.00" xmlns="http://www.w3.org/2000/svg" xmlns:xlink="http://www.w3.org/1999/xlink">
<g id="graph0" class="graph" transform="scale(1 1) rotate(0) translate(4 62)">
<title>Calculator::memoryStore</title>
<polygon fill="white" stroke="transparent" points="-4,4 -4,-62 323,-62 323,4 -4,4"/>
<!-- Node1 -->
<g id="node1" class="node">
<title>Node1</title>
<g id="a_node1"><a xlink:title="Store current value in memory.">
<polygon fill="#bfbfbf" stroke="black" points="0,-19.5 0,-38.5 139,-38.5 139,-19.5 0,-19.5"/>
<text text-anchor="middle" x="69.5" y="-26.5" font-family="Helvetica,sans-Serif" font-size="10.00">Calculator::memoryStore</text>
</a>
</g>
</g>
<!-- Node2 -->
<g id="node2" class="node">
<title>Node2</title>
<g id="a_node2"><a xlink:href="../../d8/dbe/classCalculator.html#add8a2ef3e8af88790326ad83b1cd541a" target="_top" xlink:title="Add entry to calculation history.">
<polygon fill="white" stroke="black" points="179,-38.5 179,-57.5 315,-57.5 315,-38.5 179,-38.5"/>
<text text-anchor="middle" x="247" y="-45.5" font-family="Helvetica,sans-Serif" font-size="10.00">Calculator::addToHistory</text>
</a>
</g>
</g>
<!-- Node1&#45;&gt;Node2 -->
<g id="edge1" class="edge">
<title>Node1&#45;&gt;Node2</title>
<path fill="none" stroke="midnightblue" d="M139.11,-36.43C148.81,-37.48 158.84,-38.56 168.7,-39.63"/>
<polygon fill="midnightblue" stroke="midnightblue" points="168.56,-43.14 178.88,-40.73 169.32,-36.18 168.56,-43.14"/>
</g>
<!-- Node3 -->
<g id="node3" class="node">
<title>Node3</title>
<g id="a_node3"><a xlink:href="../../d8/dbe/classCalculator.html#a764f3d664f2401435b3300dcc043e139" target="_top" xlink:title="Format number for display.">
<polygon fill="white" stroke="black" points="175,-0.5 175,-19.5 319,-19.5 319,-0.5 175,-0.5"/>
<text text-anchor="middle" x="247" y="-7.5" font-family="Helvetica,sans-Serif" font-size="10.00">Calculator::formatNumber</text>
</a>
</g>
</g>
<!-- Node1&#45;&gt;Node3 -->
<g id="edge2" class="edge">
<title>Node1&#45;&gt;Node3</title>
<path fill="none" stroke="midnightblue" d="M139.11,-21.57C147.54,-20.66 156.21,-19.72 164.81,-18.79"/>
<polygon fill="midnightblue" stroke="midnightblue" points="165.27,-22.26 174.84,-17.7 164.52,-15.3 165.27,-22.26"/>
</g>
</g>
</svg>
