<?xml version="1.0" encoding="UTF-8" standalone="no"?>
<!DOCTYPE svg PUBLIC "-//W3C//DTD SVG 1.1//EN"
 "http://www.w3.org/Graphics/SVG/1.1/DTD/svg11.dtd">
<!-- Generated by graphviz version 2.43.0 (0)
 -->
<!-- Title: Calculator::sin Pages: 1 -->
<svg width="291pt" height="104pt"
 viewBox="0.00 0.00 291.00 104.00" xmlns="http://www.w3.org/2000/svg" xmlns:xlink="http://www.w3.org/1999/xlink">
<g id="graph0" class="graph" transform="scale(1 1) rotate(0) translate(4 100)">
<title>Calculator::sin</title>
<polygon fill="white" stroke="transparent" points="-4,4 -4,-100 287,-100 287,4 -4,4"/>
<!-- Node1 -->
<g id="node1" class="node">
<title>Node1</title>
<g id="a_node1"><a xlink:title="Calculate sine in radians.">
<polygon fill="#bfbfbf" stroke="black" points="0,-38.5 0,-57.5 86,-57.5 86,-38.5 0,-38.5"/>
<text text-anchor="middle" x="43" y="-45.5" font-family="Helvetica,sans-Serif" font-size="10.00">Calculator::sin</text>
</a>
</g>
</g>
<!-- Node2 -->
<g id="node2" class="node">
<title>Node2</title>
<g id="a_node2"><a xlink:href="../../d8/dbe/classCalculator.html#add8a2ef3e8af88790326ad83b1cd541a" target="_top" xlink:title="Add entry to calculation history.">
<polygon fill="white" stroke="black" points="134.5,-76.5 134.5,-95.5 270.5,-95.5 270.5,-76.5 134.5,-76.5"/>
<text text-anchor="middle" x="202.5" y="-83.5" font-family="Helvetica,sans-Serif" font-size="10.00">Calculator::addToHistory</text>
</a>
</g>
</g>
<!-- Node1&#45;&gt;Node2 -->
<g id="edge1" class="edge">
<title>Node1&#45;&gt;Node2</title>
<path fill="none" stroke="midnightblue" d="M82.87,-57.5C95.36,-60.55 109.26,-63.93 122,-67 131.52,-69.3 141.69,-71.74 151.46,-74.08"/>
<polygon fill="midnightblue" stroke="midnightblue" points="150.92,-77.54 161.46,-76.47 152.54,-70.74 150.92,-77.54"/>
</g>
<!-- Node3 -->
<g id="node3" class="node">
<title>Node3</title>
<g id="a_node3"><a xlink:href="../../d8/dbe/classCalculator.html#abf6e7d9881622455b2a506e40082724f" target="_top" xlink:title="Convert between degrees and radians.">
<polygon fill="white" stroke="black" points="122,-38.5 122,-57.5 283,-57.5 283,-38.5 122,-38.5"/>
<text text-anchor="middle" x="202.5" y="-45.5" font-family="Helvetica,sans-Serif" font-size="10.00">Calculator::degreesToRadians</text>
</a>
</g>
</g>
<!-- Node1&#45;&gt;Node3 -->
<g id="edge2" class="edge">
<title>Node1&#45;&gt;Node3</title>
<path fill="none" stroke="midnightblue" d="M86.21,-48C94.22,-48 102.88,-48 111.73,-48"/>
<polygon fill="midnightblue" stroke="midnightblue" points="111.77,-51.5 121.77,-48 111.77,-44.5 111.77,-51.5"/>
</g>
<!-- Node4 -->
<g id="node4" class="node">
<title>Node4</title>
<g id="a_node4"><a xlink:href="../../d8/dbe/classCalculator.html#a764f3d664f2401435b3300dcc043e139" target="_top" xlink:title="Format number for display.">
<polygon fill="white" stroke="black" points="130.5,-0.5 130.5,-19.5 274.5,-19.5 274.5,-0.5 130.5,-0.5"/>
<text text-anchor="middle" x="202.5" y="-7.5" font-family="Helvetica,sans-Serif" font-size="10.00">Calculator::formatNumber</text>
</a>
</g>
</g>
<!-- Node1&#45;&gt;Node4 -->
<g id="edge3" class="edge">
<title>Node1&#45;&gt;Node4</title>
<path fill="none" stroke="midnightblue" d="M82.87,-38.5C95.36,-35.45 109.26,-32.07 122,-29 131.52,-26.7 141.69,-24.26 151.46,-21.92"/>
<polygon fill="midnightblue" stroke="midnightblue" points="152.54,-25.26 161.46,-19.53 150.92,-18.46 152.54,-25.26"/>
</g>
</g>
</svg>
