<?xml version="1.0" encoding="UTF-8" standalone="no"?>
<!DOCTYPE svg PUBLIC "-//W3C//DTD SVG 1.1//EN"
 "http://www.w3.org/Graphics/SVG/1.1/DTD/svg11.dtd">
<!-- Generated by graphviz version 2.43.0 (0)
 -->
<!-- Title: Calculator::calculate Pages: 1 -->
<svg width="372pt" height="47pt"
 viewBox="0.00 0.00 372.00 47.00" xmlns="http://www.w3.org/2000/svg" xmlns:xlink="http://www.w3.org/1999/xlink">
<g id="graph0" class="graph" transform="scale(1 1) rotate(0) translate(4 43)">
<title>Calculator::calculate</title>
<polygon fill="white" stroke="transparent" points="-4,4 -4,-43 368,-43 368,4 -4,4"/>
<!-- Node1 -->
<g id="node1" class="node">
<title>Node1</title>
<g id="a_node1"><a xlink:title=" ">
<polygon fill="#bfbfbf" stroke="black" points="248,-19.5 248,-38.5 364,-38.5 364,-19.5 248,-19.5"/>
<text text-anchor="middle" x="306" y="-26.5" font-family="Helvetica,sans-Serif" font-size="10.00">Calculator::calculate</text>
</a>
</g>
</g>
<!-- Node2 -->
<g id="node2" class="node">
<title>Node2</title>
<g id="a_node2"><a xlink:href="../../df/d0a/main_8cpp.html#ae66f6b31b5ad750f1fe042a706a4e3d4" target="_top" xlink:title=" ">
<polygon fill="white" stroke="black" points="0,-19.5 0,-38.5 41,-38.5 41,-19.5 0,-19.5"/>
<text text-anchor="middle" x="20.5" y="-26.5" font-family="Helvetica,sans-Serif" font-size="10.00">main</text>
</a>
</g>
</g>
<!-- Node1&#45;&gt;Node2 -->
<g id="edge1" class="edge">
<title>Node1&#45;&gt;Node2</title>
<path fill="none" stroke="midnightblue" d="M237.95,-29C173.89,-29 81.34,-29 41.25,-29"/>
<polygon fill="midnightblue" stroke="midnightblue" points="237.97,-32.5 247.97,-29 237.97,-25.5 237.97,-32.5"/>
</g>
<!-- Node3 -->
<g id="node3" class="node">
<title>Node3</title>
<g id="a_node3"><a xlink:href="../../d8/dbe/classCalculator.html#aecc0629ec1d4ce2c6fceb9b57c576386" target="_top" xlink:title=" ">
<polygon fill="white" stroke="black" points="77,-0.5 77,-19.5 212,-19.5 212,-0.5 77,-0.5"/>
<text text-anchor="middle" x="144.5" y="-7.5" font-family="Helvetica,sans-Serif" font-size="10.00">Calculator::setOperation</text>
</a>
</g>
</g>
<!-- Node1&#45;&gt;Node3 -->
<g id="edge2" class="edge">
<title>Node1&#45;&gt;Node3</title>
<path fill="none" stroke="midnightblue" d="M237.92,-21.01C229.35,-19.99 220.58,-18.94 212.01,-17.92"/>
<polygon fill="midnightblue" stroke="midnightblue" points="237.52,-24.49 247.87,-22.19 238.35,-17.54 237.52,-24.49"/>
</g>
<!-- Node3&#45;&gt;Node2 -->
<g id="edge3" class="edge">
<title>Node3&#45;&gt;Node2</title>
<path fill="none" stroke="midnightblue" d="M72.11,-21.12C60.78,-22.88 49.95,-24.57 41.23,-25.93"/>
<polygon fill="midnightblue" stroke="midnightblue" points="72.8,-24.55 82.14,-19.56 71.72,-17.64 72.8,-24.55"/>
</g>
</g>
</svg>
