<?xml version="1.0" encoding="UTF-8" standalone="no"?>
<!DOCTYPE svg PUBLIC "-//W3C//DTD SVG 1.1//EN"
 "http://www.w3.org/Graphics/SVG/1.1/DTD/svg11.dtd">
<!-- Generated by graphviz version 2.43.0 (0)
 -->
<!-- Title: Calculator::subtract Pages: 1 -->
<svg width="300pt" height="66pt"
 viewBox="0.00 0.00 300.00 66.00" xmlns="http://www.w3.org/2000/svg" xmlns:xlink="http://www.w3.org/1999/xlink">
<g id="graph0" class="graph" transform="scale(1 1) rotate(0) translate(4 62)">
<title>Calculator::subtract</title>
<polygon fill="white" stroke="transparent" points="-4,4 -4,-62 296,-62 296,4 -4,4"/>
<!-- Node1 -->
<g id="node1" class="node">
<title>Node1</title>
<g id="a_node1"><a xlink:title=" ">
<polygon fill="#bfbfbf" stroke="black" points="0,-19.5 0,-38.5 112,-38.5 112,-19.5 0,-19.5"/>
<text text-anchor="middle" x="56" y="-26.5" font-family="Helvetica,sans-Serif" font-size="10.00">Calculator::subtract</text>
</a>
</g>
</g>
<!-- Node2 -->
<g id="node2" class="node">
<title>Node2</title>
<g id="a_node2"><a xlink:href="../../d8/dbe/classCalculator.html#add8a2ef3e8af88790326ad83b1cd541a" target="_top" xlink:title="Add entry to calculation history.">
<polygon fill="white" stroke="black" points="152,-38.5 152,-57.5 288,-57.5 288,-38.5 152,-38.5"/>
<text text-anchor="middle" x="220" y="-45.5" font-family="Helvetica,sans-Serif" font-size="10.00">Calculator::addToHistory</text>
</a>
</g>
</g>
<!-- Node1&#45;&gt;Node2 -->
<g id="edge1" class="edge">
<title>Node1&#45;&gt;Node2</title>
<path fill="none" stroke="midnightblue" d="M112.3,-35.49C121.85,-36.61 131.94,-37.79 141.95,-38.96"/>
<polygon fill="midnightblue" stroke="midnightblue" points="141.57,-42.44 151.91,-40.13 142.38,-35.49 141.57,-42.44"/>
</g>
<!-- Node3 -->
<g id="node3" class="node">
<title>Node3</title>
<g id="a_node3"><a xlink:href="../../d8/dbe/classCalculator.html#a764f3d664f2401435b3300dcc043e139" target="_top" xlink:title="Format number for display.">
<polygon fill="white" stroke="black" points="148,-0.5 148,-19.5 292,-19.5 292,-0.5 148,-0.5"/>
<text text-anchor="middle" x="220" y="-7.5" font-family="Helvetica,sans-Serif" font-size="10.00">Calculator::formatNumber</text>
</a>
</g>
</g>
<!-- Node1&#45;&gt;Node3 -->
<g id="edge2" class="edge">
<title>Node1&#45;&gt;Node3</title>
<path fill="none" stroke="midnightblue" d="M112.3,-22.51C120.53,-21.55 129.16,-20.54 137.8,-19.52"/>
<polygon fill="midnightblue" stroke="midnightblue" points="138.39,-22.98 147.91,-18.34 137.57,-16.03 138.39,-22.98"/>
</g>
</g>
</svg>
