<?xml version="1.0" encoding="UTF-8" standalone="no"?>
<!DOCTYPE svg PUBLIC "-//W3C//DTD SVG 1.1//EN"
 "http://www.w3.org/Graphics/SVG/1.1/DTD/svg11.dtd">
<!-- Generated by graphviz version 2.43.0 (0)
 -->
<!-- Title: Calculator::add Pages: 1 -->
<svg width="278pt" height="66pt"
 viewBox="0.00 0.00 278.00 66.00" xmlns="http://www.w3.org/2000/svg" xmlns:xlink="http://www.w3.org/1999/xlink">
<g id="graph0" class="graph" transform="scale(1 1) rotate(0) translate(4 62)">
<title>Calculator::add</title>
<polygon fill="white" stroke="transparent" points="-4,4 -4,-62 274,-62 274,4 -4,4"/>
<!-- Node1 -->
<g id="node1" class="node">
<title>Node1</title>
<g id="a_node1"><a xlink:title=" ">
<polygon fill="#bfbfbf" stroke="black" points="0,-19.5 0,-38.5 90,-38.5 90,-19.5 0,-19.5"/>
<text text-anchor="middle" x="45" y="-26.5" font-family="Helvetica,sans-Serif" font-size="10.00">Calculator::add</text>
</a>
</g>
</g>
<!-- Node2 -->
<g id="node2" class="node">
<title>Node2</title>
<g id="a_node2"><a xlink:href="../../d8/dbe/classCalculator.html#add8a2ef3e8af88790326ad83b1cd541a" target="_top" xlink:title="Add entry to calculation history.">
<polygon fill="white" stroke="black" points="130,-38.5 130,-57.5 266,-57.5 266,-38.5 130,-38.5"/>
<text text-anchor="middle" x="198" y="-45.5" font-family="Helvetica,sans-Serif" font-size="10.00">Calculator::addToHistory</text>
</a>
</g>
</g>
<!-- Node1&#45;&gt;Node2 -->
<g id="edge1" class="edge">
<title>Node1&#45;&gt;Node2</title>
<path fill="none" stroke="midnightblue" d="M90.08,-34.55C99.42,-35.72 109.53,-36.99 119.69,-38.27"/>
<polygon fill="midnightblue" stroke="midnightblue" points="119.48,-41.77 129.84,-39.55 120.36,-34.83 119.48,-41.77"/>
</g>
<!-- Node3 -->
<g id="node3" class="node">
<title>Node3</title>
<g id="a_node3"><a xlink:href="../../d8/dbe/classCalculator.html#a764f3d664f2401435b3300dcc043e139" target="_top" xlink:title="Format number for display.">
<polygon fill="white" stroke="black" points="126,-0.5 126,-19.5 270,-19.5 270,-0.5 126,-0.5"/>
<text text-anchor="middle" x="198" y="-7.5" font-family="Helvetica,sans-Serif" font-size="10.00">Calculator::formatNumber</text>
</a>
</g>
</g>
<!-- Node1&#45;&gt;Node3 -->
<g id="edge2" class="edge">
<title>Node1&#45;&gt;Node3</title>
<path fill="none" stroke="midnightblue" d="M90.08,-23.45C98.24,-22.43 107,-21.33 115.85,-20.21"/>
<polygon fill="midnightblue" stroke="midnightblue" points="116.39,-23.67 125.87,-18.95 115.52,-16.73 116.39,-23.67"/>
</g>
</g>
</svg>
