<?xml version="1.0" encoding="UTF-8" standalone="no"?>
<!DOCTYPE svg PUBLIC "-//W3C//DTD SVG 1.1//EN"
 "http://www.w3.org/Graphics/SVG/1.1/DTD/svg11.dtd">
<!-- Generated by graphviz version 2.43.0 (0)
 -->
<!-- Title: Calculator::degreesToRadians Pages: 1 -->
<svg width="371pt" height="104pt"
 viewBox="0.00 0.00 371.00 104.00" xmlns="http://www.w3.org/2000/svg" xmlns:xlink="http://www.w3.org/1999/xlink">
<g id="graph0" class="graph" transform="scale(1 1) rotate(0) translate(4 100)">
<title>Calculator::degreesToRadians</title>
<polygon fill="white" stroke="transparent" points="-4,4 -4,-100 367,-100 367,4 -4,4"/>
<!-- Node1 -->
<g id="node1" class="node">
<title>Node1</title>
<g id="a_node1"><a xlink:title="Convert between degrees and radians.">
<polygon fill="#bfbfbf" stroke="black" points="202,-38.5 202,-57.5 363,-57.5 363,-38.5 202,-38.5"/>
<text text-anchor="middle" x="282.5" y="-45.5" font-family="Helvetica,sans-Serif" font-size="10.00">Calculator::degreesToRadians</text>
</a>
</g>
</g>
<!-- Node2 -->
<g id="node2" class="node">
<title>Node2</title>
<g id="a_node2"><a xlink:href="../../d8/dbe/classCalculator.html#a37c0d80307a75c1b9425d675407e7914" target="_top" xlink:title="Calculate cosine in radians.">
<polygon fill="white" stroke="black" points="77,-76.5 77,-95.5 166,-95.5 166,-76.5 77,-76.5"/>
<text text-anchor="middle" x="121.5" y="-83.5" font-family="Helvetica,sans-Serif" font-size="10.00">Calculator::cos</text>
</a>
</g>
</g>
<!-- Node1&#45;&gt;Node2 -->
<g id="edge1" class="edge">
<title>Node1&#45;&gt;Node2</title>
<path fill="none" stroke="midnightblue" d="M231.42,-59.97C209.14,-65.29 183.27,-71.48 162.33,-76.48"/>
<polygon fill="midnightblue" stroke="midnightblue" points="232.47,-63.32 241.38,-57.59 230.84,-56.51 232.47,-63.32"/>
</g>
<!-- Node4 -->
<g id="node4" class="node">
<title>Node4</title>
<g id="a_node4"><a xlink:href="../../d8/dbe/classCalculator.html#a3e9c9f13f93ce365c30c8e6387718e91" target="_top" xlink:title="Calculate sine in radians.">
<polygon fill="white" stroke="black" points="78.5,-38.5 78.5,-57.5 164.5,-57.5 164.5,-38.5 78.5,-38.5"/>
<text text-anchor="middle" x="121.5" y="-45.5" font-family="Helvetica,sans-Serif" font-size="10.00">Calculator::sin</text>
</a>
</g>
</g>
<!-- Node1&#45;&gt;Node4 -->
<g id="edge3" class="edge">
<title>Node1&#45;&gt;Node4</title>
<path fill="none" stroke="midnightblue" d="M191.46,-48C182.21,-48 173.17,-48 164.83,-48"/>
<polygon fill="midnightblue" stroke="midnightblue" points="191.53,-51.5 201.53,-48 191.53,-44.5 191.53,-51.5"/>
</g>
<!-- Node5 -->
<g id="node5" class="node">
<title>Node5</title>
<g id="a_node5"><a xlink:href="../../d8/dbe/classCalculator.html#a4180b40722d78518ee1d3ba8ad58f632" target="_top" xlink:title="Calculate tangent in radians.">
<polygon fill="white" stroke="black" points="77.5,-0.5 77.5,-19.5 165.5,-19.5 165.5,-0.5 77.5,-0.5"/>
<text text-anchor="middle" x="121.5" y="-7.5" font-family="Helvetica,sans-Serif" font-size="10.00">Calculator::tan</text>
</a>
</g>
</g>
<!-- Node1&#45;&gt;Node5 -->
<g id="edge5" class="edge">
<title>Node1&#45;&gt;Node5</title>
<path fill="none" stroke="midnightblue" d="M231.42,-36.03C209.14,-30.71 183.27,-24.52 162.33,-19.52"/>
<polygon fill="midnightblue" stroke="midnightblue" points="230.84,-39.49 241.38,-38.41 232.47,-32.68 230.84,-39.49"/>
</g>
<!-- Node3 -->
<g id="node3" class="node">
<title>Node3</title>
<g id="a_node3"><a xlink:href="../../df/d0a/main_8cpp.html#ae66f6b31b5ad750f1fe042a706a4e3d4" target="_top" xlink:title=" ">
<polygon fill="white" stroke="black" points="0,-38.5 0,-57.5 41,-57.5 41,-38.5 0,-38.5"/>
<text text-anchor="middle" x="20.5" y="-45.5" font-family="Helvetica,sans-Serif" font-size="10.00">main</text>
</a>
</g>
</g>
<!-- Node2&#45;&gt;Node3 -->
<g id="edge2" class="edge">
<title>Node2&#45;&gt;Node3</title>
<path fill="none" stroke="midnightblue" d="M86.02,-72.76C71.01,-67 53.97,-60.46 41.17,-55.55"/>
<polygon fill="midnightblue" stroke="midnightblue" points="84.93,-76.1 95.52,-76.41 87.44,-69.56 84.93,-76.1"/>
</g>
<!-- Node4&#45;&gt;Node3 -->
<g id="edge4" class="edge">
<title>Node4&#45;&gt;Node3</title>
<path fill="none" stroke="midnightblue" d="M68.16,-48C58.48,-48 48.96,-48 41.06,-48"/>
<polygon fill="midnightblue" stroke="midnightblue" points="68.23,-51.5 78.23,-48 68.23,-44.5 68.23,-51.5"/>
</g>
<!-- Node5&#45;&gt;Node3 -->
<g id="edge6" class="edge">
<title>Node5&#45;&gt;Node3</title>
<path fill="none" stroke="midnightblue" d="M86.02,-23.24C71.01,-29 53.97,-35.54 41.17,-40.45"/>
<polygon fill="midnightblue" stroke="midnightblue" points="87.44,-26.44 95.52,-19.59 84.93,-19.9 87.44,-26.44"/>
</g>
</g>
</svg>
