<?xml version="1.0" encoding="UTF-8" standalone="no"?>
<!DOCTYPE svg PUBLIC "-//W3C//DTD SVG 1.1//EN"
 "http://www.w3.org/Graphics/SVG/1.1/DTD/svg11.dtd">
<!-- Generated by graphviz version 2.43.0 (0)
 -->
<!-- Title: Calculator::setOperation Pages: 1 -->
<!--zoomable 200 -->
<svg id="main" version="1.1" xmlns="http://www.w3.org/2000/svg" xmlns:xlink="http://www.w3.org/1999/xlink" xml:space="preserve" onload="init(evt)">
<style type="text/css"><![CDATA[
.edge:hover path { stroke: red; }
.edge:hover polygon { stroke: red; fill: red; }
]]></style>
<script type="text/javascript"><![CDATA[
var edges = document.getElementsByTagName('g');
if (edges && edges.length) {
  for (var i=0;i<edges.length;i++) {
    if (edges[i].id.substr(0,4)=='edge') {
      edges[i].setAttribute('class','edge');
    }
  }
}
]]></script>
        <defs>
                <circle id="rim" cx="0" cy="0" r="7"/>
                <circle id="rim2" cx="0" cy="0" r="3.5"/>
                <g id="zoomPlus">
                        <use xlink:href="#rim" fill="#404040">
                                <set attributeName="fill" to="#808080" begin="zoomplus.mouseover" end="zoomplus.mouseout"/>
                        </use>
                        <path d="M-4,0h8M0,-4v8" fill="none" stroke="white" stroke-width="1.5" pointer-events="none"/>
                </g>
                <g id="zoomMin">
                        <use xlink:href="#rim" fill="#404040">
                                <set attributeName="fill" to="#808080" begin="zoomminus.mouseover" end="zoomminus.mouseout"/>
                        </use>
                        <path d="M-4,0h8" fill="none" stroke="white" stroke-width="1.5" pointer-events="none"/>
                </g>
                <g id="dirArrow">
                        <path fill="none" stroke="white" stroke-width="1.5" d="M0,-3.0v7 M-2.5,-0.5L0,-3.0L2.5,-0.5"/>
                </g>
               <g id="resetDef">
                       <use xlink:href="#rim2" fill="#404040">
                               <set attributeName="fill" to="#808080" begin="reset.mouseover" end="reset.mouseout"/>
                       </use>
               </g>
        </defs>

<script type="text/javascript">
var viewWidth = 624;
var viewHeight = 200;
var sectionId = 'dynsection-32';
</script>
<script xlink:href="../../svgpan.js"/>
<svg id="graph" class="graph">
<g id="viewport">
<title>Calculator::setOperation</title>
<polygon fill="white" stroke="transparent" points="-4,4 -4,-196.18 620,-196.18 620,4 -4,4"/>
<!-- Node1 -->
<g id="node1" class="node">
<title>Node1</title>
<g id="a_node1"><a xlink:title=" ">
<polygon fill="#bfbfbf" stroke="black" points="0,-77.68 0,-96.68 135,-96.68 135,-77.68 0,-77.68"/>
<text text-anchor="middle" x="67.5" y="-84.68" font-family="Helvetica,sans-Serif" font-size="10.00">Calculator::setOperation</text>
</a>
</g>
</g>
<!-- Node2 -->
<g id="node2" class="node">
<title>Node2</title>
<g id="a_node2"><a xlink:href="../../d8/dbe/classCalculator.html#a9e304d79b58ced8a6e71c5d5dea7c1b7" target="_top" xlink:title=" ">
<polygon fill="white" stroke="black" points="171,-77.68 171,-96.68 287,-96.68 287,-77.68 171,-77.68"/>
<text text-anchor="middle" x="229" y="-84.68" font-family="Helvetica,sans-Serif" font-size="10.00">Calculator::calculate</text>
</a>
</g>
</g>
<!-- Node1&#45;&gt;Node2 -->
<g id="edge1" class="edge">
<title>Node1&#45;&gt;Node2</title>
<path fill="none" stroke="midnightblue" d="M135.22,-87.18C143.59,-87.18 152.17,-87.18 160.55,-87.18"/>
<polygon fill="midnightblue" stroke="midnightblue" points="160.66,-90.68 170.66,-87.18 160.66,-83.68 160.66,-90.68"/>
</g>
<!-- Node3 -->
<g id="node3" class="node">
<title>Node3</title>
<g id="a_node3"><a xlink:href="../../d8/dbe/classCalculator.html#a54ca827c4b408c795576d48503eee6aa" target="_top" xlink:title=" ">
<polygon fill="white" stroke="black" points="334.5,-20.68 334.5,-39.68 424.5,-39.68 424.5,-20.68 334.5,-20.68"/>
<text text-anchor="middle" x="379.5" y="-27.68" font-family="Helvetica,sans-Serif" font-size="10.00">Calculator::add</text>
</a>
</g>
</g>
<!-- Node2&#45;&gt;Node3 -->
<g id="edge2" class="edge">
<title>Node2&#45;&gt;Node3</title>
<path fill="none" stroke="midnightblue" d="M252.41,-77.6C271.15,-69.69 298.67,-58.31 323,-49.18 328.5,-47.12 334.33,-45.02 340.08,-43.01"/>
<polygon fill="midnightblue" stroke="midnightblue" points="341.27,-46.3 349.58,-39.73 338.99,-39.69 341.27,-46.3"/>
</g>
<!-- Node5 -->
<g id="node5" class="node">
<title>Node5</title>
<g id="a_node5"><a xlink:href="../../d8/dbe/classCalculator.html#a764f3d664f2401435b3300dcc043e139" target="_top" xlink:title="Format number for display.">
<polygon fill="white" stroke="black" points="472,-58.68 472,-77.68 616,-77.68 616,-58.68 472,-58.68"/>
<text text-anchor="middle" x="544" y="-65.68" font-family="Helvetica,sans-Serif" font-size="10.00">Calculator::formatNumber</text>
</a>
</g>
</g>
<!-- Node2&#45;&gt;Node5 -->
<g id="edge8" class="edge">
<title>Node2&#45;&gt;Node5</title>
<path fill="none" stroke="midnightblue" d="M237.69,-77.56C252.18,-60.28 285.49,-24.56 323,-11.18 370.3,5.69 387.27,0.99 436,-11.18 468.02,-19.18 500.96,-38.76 521.67,-52.74"/>
<polygon fill="midnightblue" stroke="midnightblue" points="519.81,-55.71 530.03,-58.52 523.8,-49.95 519.81,-55.71"/>
</g>
<!-- Node6 -->
<g id="node6" class="node">
<title>Node6</title>
<g id="a_node6"><a xlink:href="../../d8/dbe/classCalculator.html#a7da73cdbcc434a4f28d614f7f036b74a" target="_top" xlink:title=" ">
<polygon fill="white" stroke="black" points="328.5,-172.68 328.5,-191.68 430.5,-191.68 430.5,-172.68 328.5,-172.68"/>
<text text-anchor="middle" x="379.5" y="-179.68" font-family="Helvetica,sans-Serif" font-size="10.00">Calculator::divide</text>
</a>
</g>
</g>
<!-- Node2&#45;&gt;Node6 -->
<g id="edge5" class="edge">
<title>Node2&#45;&gt;Node6</title>
<path fill="none" stroke="midnightblue" d="M239.45,-96.9C255.37,-112.76 289.1,-144.34 323,-163.18 326.7,-165.24 330.67,-167.14 334.72,-168.86"/>
<polygon fill="midnightblue" stroke="midnightblue" points="333.63,-172.19 344.22,-172.58 336.18,-165.68 333.63,-172.19"/>
</g>
<!-- Node7 -->
<g id="node7" class="node">
<title>Node7</title>
<g id="a_node7"><a xlink:href="../../d8/dbe/classCalculator.html#a319373a53b4e84f92c207e4f7bb9dfce" target="_top" xlink:title=" ">
<polygon fill="white" stroke="black" points="323,-134.68 323,-153.68 436,-153.68 436,-134.68 323,-134.68"/>
<text text-anchor="middle" x="379.5" y="-141.68" font-family="Helvetica,sans-Serif" font-size="10.00">Calculator::multiply</text>
</a>
</g>
</g>
<!-- Node2&#45;&gt;Node7 -->
<g id="edge9" class="edge">
<title>Node2&#45;&gt;Node7</title>
<path fill="none" stroke="midnightblue" d="M252.41,-96.77C271.15,-104.68 298.67,-116.06 323,-125.18 328.5,-127.25 334.33,-129.34 340.08,-131.35"/>
<polygon fill="midnightblue" stroke="midnightblue" points="338.99,-134.68 349.58,-134.64 341.27,-128.06 338.99,-134.68"/>
</g>
<!-- Node8 -->
<g id="node8" class="node">
<title>Node8</title>
<g id="a_node8"><a xlink:href="../../d8/dbe/classCalculator.html#a6daef00d57c1e9cdcefcf017020b0cb2" target="_top" xlink:title="Calculate the power of a number.">
<polygon fill="white" stroke="black" points="328.5,-96.68 328.5,-115.68 430.5,-115.68 430.5,-96.68 328.5,-96.68"/>
<text text-anchor="middle" x="379.5" y="-103.68" font-family="Helvetica,sans-Serif" font-size="10.00">Calculator::power</text>
</a>
</g>
</g>
<!-- Node2&#45;&gt;Node8 -->
<g id="edge12" class="edge">
<title>Node2&#45;&gt;Node8</title>
<path fill="none" stroke="midnightblue" d="M287.41,-94.53C297.58,-95.83 308.18,-97.19 318.41,-98.5"/>
<polygon fill="midnightblue" stroke="midnightblue" points="318.13,-101.99 328.49,-99.79 319.02,-95.04 318.13,-101.99"/>
</g>
<!-- Node9 -->
<g id="node9" class="node">
<title>Node9</title>
<g id="a_node9"><a xlink:href="../../d8/dbe/classCalculator.html#ad8a28a8b990342d4bfde65ab85ec7596" target="_top" xlink:title=" ">
<polygon fill="white" stroke="black" points="323.5,-58.68 323.5,-77.68 435.5,-77.68 435.5,-58.68 323.5,-58.68"/>
<text text-anchor="middle" x="379.5" y="-65.68" font-family="Helvetica,sans-Serif" font-size="10.00">Calculator::subtract</text>
</a>
</g>
</g>
<!-- Node2&#45;&gt;Node9 -->
<g id="edge15" class="edge">
<title>Node2&#45;&gt;Node9</title>
<path fill="none" stroke="midnightblue" d="M287.41,-79.84C295.86,-78.76 304.62,-77.64 313.21,-76.54"/>
<polygon fill="midnightblue" stroke="midnightblue" points="313.72,-80 323.19,-75.26 312.83,-73.06 313.72,-80"/>
</g>
<!-- Node4 -->
<g id="node4" class="node">
<title>Node4</title>
<g id="a_node4"><a xlink:href="../../d8/dbe/classCalculator.html#add8a2ef3e8af88790326ad83b1cd541a" target="_top" xlink:title="Add entry to calculation history.">
<polygon fill="white" stroke="black" points="476,-96.68 476,-115.68 612,-115.68 612,-96.68 476,-96.68"/>
<text text-anchor="middle" x="544" y="-103.68" font-family="Helvetica,sans-Serif" font-size="10.00">Calculator::addToHistory</text>
</a>
</g>
</g>
<!-- Node3&#45;&gt;Node4 -->
<g id="edge3" class="edge">
<title>Node3&#45;&gt;Node4</title>
<path fill="none" stroke="midnightblue" d="M416.61,-39.71C423.33,-42.25 430.09,-45.38 436,-49.18 455.57,-61.76 452.01,-75.28 472,-87.18 475.64,-89.35 479.53,-91.27 483.54,-92.98"/>
<polygon fill="midnightblue" stroke="midnightblue" points="482.48,-96.32 493.07,-96.59 484.95,-89.77 482.48,-96.32"/>
</g>
<!-- Node3&#45;&gt;Node5 -->
<g id="edge4" class="edge">
<title>Node3&#45;&gt;Node5</title>
<path fill="none" stroke="midnightblue" d="M421.51,-39.77C443.05,-44.81 469.63,-51.03 492.44,-56.36"/>
<polygon fill="midnightblue" stroke="midnightblue" points="491.75,-59.79 502.29,-58.66 493.35,-52.98 491.75,-59.79"/>
</g>
<!-- Node6&#45;&gt;Node4 -->
<g id="edge6" class="edge">
<title>Node6&#45;&gt;Node4</title>
<path fill="none" stroke="midnightblue" d="M411.37,-172.59C419.48,-169.81 428.15,-166.59 436,-163.18 465.09,-150.55 497.01,-133.04 518.35,-120.77"/>
<polygon fill="midnightblue" stroke="midnightblue" points="520.19,-123.75 527.08,-115.7 516.68,-117.69 520.19,-123.75"/>
</g>
<!-- Node6&#45;&gt;Node5 -->
<g id="edge7" class="edge">
<title>Node6&#45;&gt;Node5</title>
<path fill="none" stroke="midnightblue" d="M421.12,-172.6C426.52,-170.14 431.67,-167.05 436,-163.18 463.87,-138.28 443.29,-111.12 472,-87.18 474.02,-85.5 476.16,-83.97 478.41,-82.57"/>
<polygon fill="midnightblue" stroke="midnightblue" points="480.27,-85.55 487.51,-77.82 477.03,-79.35 480.27,-85.55"/>
</g>
<!-- Node7&#45;&gt;Node4 -->
<g id="edge10" class="edge">
<title>Node7&#45;&gt;Node4</title>
<path fill="none" stroke="midnightblue" d="M421.51,-134.59C443.05,-129.56 469.63,-123.34 492.44,-118.01"/>
<polygon fill="midnightblue" stroke="midnightblue" points="493.35,-121.39 502.29,-115.7 491.75,-114.57 493.35,-121.39"/>
</g>
<!-- Node7&#45;&gt;Node5 -->
<g id="edge11" class="edge">
<title>Node7&#45;&gt;Node5</title>
<path fill="none" stroke="midnightblue" d="M416.61,-134.66C423.33,-132.11 430.09,-128.98 436,-125.18 455.57,-112.61 452.01,-99.08 472,-87.18 475.64,-85.02 479.53,-83.09 483.54,-81.39"/>
<polygon fill="midnightblue" stroke="midnightblue" points="484.95,-84.59 493.07,-77.78 482.48,-78.05 484.95,-84.59"/>
</g>
<!-- Node8&#45;&gt;Node4 -->
<g id="edge13" class="edge">
<title>Node8&#45;&gt;Node4</title>
<path fill="none" stroke="midnightblue" d="M430.58,-106.18C441.62,-106.18 453.56,-106.18 465.39,-106.18"/>
<polygon fill="midnightblue" stroke="midnightblue" points="465.74,-109.68 475.74,-106.18 465.74,-102.68 465.74,-109.68"/>
</g>
<!-- Node8&#45;&gt;Node5 -->
<g id="edge14" class="edge">
<title>Node8&#45;&gt;Node5</title>
<path fill="none" stroke="midnightblue" d="M421.51,-96.59C443.05,-91.56 469.63,-85.34 492.44,-80.01"/>
<polygon fill="midnightblue" stroke="midnightblue" points="493.35,-83.39 502.29,-77.7 491.75,-76.57 493.35,-83.39"/>
</g>
<!-- Node9&#45;&gt;Node4 -->
<g id="edge16" class="edge">
<title>Node9&#45;&gt;Node4</title>
<path fill="none" stroke="midnightblue" d="M421.51,-77.77C443.05,-82.81 469.63,-89.03 492.44,-94.36"/>
<polygon fill="midnightblue" stroke="midnightblue" points="491.75,-97.79 502.29,-96.66 493.35,-90.98 491.75,-97.79"/>
</g>
<!-- Node9&#45;&gt;Node5 -->
<g id="edge17" class="edge">
<title>Node9&#45;&gt;Node5</title>
<path fill="none" stroke="midnightblue" d="M435.52,-68.18C444.01,-68.18 452.94,-68.18 461.86,-68.18"/>
<polygon fill="midnightblue" stroke="midnightblue" points="461.91,-71.68 471.91,-68.18 461.91,-64.68 461.91,-71.68"/>
</g>
</g>
</svg>
        <g id="navigator" transform="translate(0 0)" fill="#404254">
                <rect fill="#f2f5e9" fill-opacity="0.5" stroke="#606060" stroke-width=".5" x="0" y="0" width="60" height="60"/>
                <use id="zoomplus" xlink:href="#zoomPlus" x="17" y="9" onmousedown="handleZoom(evt,'in')"/>
                <use id="zoomminus" xlink:href="#zoomMin" x="42" y="9" onmousedown="handleZoom(evt,'out')"/>
                <use id="reset" xlink:href="#resetDef" x="30" y="36" onmousedown="handleReset()"/>
                <g id="arrowUp" xlink:href="#dirArrow" transform="translate(30 24)" onmousedown="handlePan(0,-1)">
                  <use xlink:href="#rim" fill="#404040">
                        <set attributeName="fill" to="#808080" begin="arrowUp.mouseover" end="arrowUp.mouseout"/>
                  </use>
                  <path fill="none" stroke="white" stroke-width="1.5" d="M0,-3.0v7 M-2.5,-0.5L0,-3.0L2.5,-0.5"/>
                </g>
                <g id="arrowRight" xlink:href="#dirArrow" transform="rotate(90) translate(36 -43)" onmousedown="handlePan(1,0)">
                  <use xlink:href="#rim" fill="#404040">
                        <set attributeName="fill" to="#808080" begin="arrowRight.mouseover" end="arrowRight.mouseout"/>
                  </use>
                  <path fill="none" stroke="white" stroke-width="1.5" d="M0,-3.0v7 M-2.5,-0.5L0,-3.0L2.5,-0.5"/>
                </g>
                <g id="arrowDown" xlink:href="#dirArrow" transform="rotate(180) translate(-30 -48)" onmousedown="handlePan(0,1)">
                  <use xlink:href="#rim" fill="#404040">
                        <set attributeName="fill" to="#808080" begin="arrowDown.mouseover" end="arrowDown.mouseout"/>
                  </use>
                  <path fill="none" stroke="white" stroke-width="1.5" d="M0,-3.0v7 M-2.5,-0.5L0,-3.0L2.5,-0.5"/>
                </g>
                <g id="arrowLeft" xlink:href="#dirArrow" transform="rotate(270) translate(-36 17)" onmousedown="handlePan(-1,0)">
                  <use xlink:href="#rim" fill="#404040">
                        <set attributeName="fill" to="#808080" begin="arrowLeft.mouseover" end="arrowLeft.mouseout"/>
                  </use>
                  <path fill="none" stroke="white" stroke-width="1.5" d="M0,-3.0v7 M-2.5,-0.5L0,-3.0L2.5,-0.5"/>
                </g>
        </g>
        <svg viewBox="0 0 15 15" width="100%" height="30px" preserveAspectRatio="xMaxYMin meet">
         <g id="arrow_out" transform="scale(0.3 0.3)">
          <a xlink:href="classCalculator_aecc0629ec1d4ce2c6fceb9b57c576386_cgraph_org.svg" target="_base">
           <rect id="button" ry="5" rx="5" y="6" x="6" height="38" width="38"
                fill="#f2f5e9" fill-opacity="0.5" stroke="#606060" stroke-width="1.0"/>
           <path id="arrow"
             d="M 11.500037,31.436501 C 11.940474,20.09759 22.043105,11.32322 32.158766,21.979434 L 37.068811,17.246167 C 37.068811,17.246167 37.088388,32 37.088388,32 L 22.160133,31.978069 C 22.160133,31.978069 26.997745,27.140456 26.997745,27.140456 C 18.528582,18.264221 13.291696,25.230495 11.500037,31.436501 z"
             style="fill:#404040;"/>
          </a>
         </g>
        </svg>
</svg>
