<?xml version="1.0" encoding="UTF-8" standalone="no"?>
<!DOCTYPE svg PUBLIC "-//W3C//DTD SVG 1.1//EN"
 "http://www.w3.org/Graphics/SVG/1.1/DTD/svg11.dtd">
<!-- Generated by graphviz version 2.43.0 (0)
 -->
<!-- Title: src/main.cpp Pages: 1 -->
<svg width="394pt" height="140pt"
 viewBox="0.00 0.00 394.00 140.00" xmlns="http://www.w3.org/2000/svg" xmlns:xlink="http://www.w3.org/1999/xlink">
<g id="graph0" class="graph" transform="scale(1 1) rotate(0) translate(4 136)">
<title>src/main.cpp</title>
<polygon fill="white" stroke="transparent" points="-4,4 -4,-136 390,-136 390,4 -4,4"/>
<!-- Node1 -->
<g id="node1" class="node">
<title>Node1</title>
<g id="a_node1"><a xlink:title=" ">
<polygon fill="#bfbfbf" stroke="black" points="180.5,-112.5 180.5,-131.5 259.5,-131.5 259.5,-112.5 180.5,-112.5"/>
<text text-anchor="middle" x="220" y="-119.5" font-family="Helvetica,sans-Serif" font-size="10.00">src/main.cpp</text>
</a>
</g>
</g>
<!-- Node2 -->
<g id="node2" class="node">
<title>Node2</title>
<g id="a_node2"><a xlink:href="../../db/d2b/calculator_8h.html" target="_top" xlink:title="Advanced Calculator Class Implementation.">
<polygon fill="white" stroke="black" points="98.5,-56.5 98.5,-75.5 171.5,-75.5 171.5,-56.5 98.5,-56.5"/>
<text text-anchor="middle" x="135" y="-63.5" font-family="Helvetica,sans-Serif" font-size="10.00">calculator.h</text>
</a>
</g>
</g>
<!-- Node1&#45;&gt;Node2 -->
<g id="edge1" class="edge">
<title>Node1&#45;&gt;Node2</title>
<path fill="none" stroke="midnightblue" d="M206.34,-112.32C193.08,-103.9 172.73,-90.97 157.15,-81.07"/>
<polygon fill="midnightblue" stroke="midnightblue" points="158.94,-78.06 148.62,-75.65 155.19,-83.97 158.94,-78.06"/>
</g>
<!-- Node3 -->
<g id="node3" class="node">
<title>Node3</title>
<g id="a_node3"><a xlink:title=" ">
<polygon fill="white" stroke="#bfbfbf" points="0,-0.5 0,-19.5 44,-19.5 44,-0.5 0,-0.5"/>
<text text-anchor="middle" x="22" y="-7.5" font-family="Helvetica,sans-Serif" font-size="10.00">string</text>
</a>
</g>
</g>
<!-- Node1&#45;&gt;Node3 -->
<g id="edge10" class="edge">
<title>Node1&#45;&gt;Node3</title>
<path fill="none" stroke="midnightblue" d="M181.98,-112.46C155,-105.33 118.64,-93.48 90,-76 68.56,-62.91 48.34,-42.09 35.61,-27.55"/>
<polygon fill="midnightblue" stroke="midnightblue" points="38.17,-25.16 29.02,-19.82 32.84,-29.7 38.17,-25.16"/>
</g>
<!-- Node8 -->
<g id="node8" class="node">
<title>Node8</title>
<g id="a_node8"><a xlink:title=" ">
<polygon fill="white" stroke="#bfbfbf" points="190,-56.5 190,-75.5 250,-75.5 250,-56.5 190,-56.5"/>
<text text-anchor="middle" x="220" y="-63.5" font-family="Helvetica,sans-Serif" font-size="10.00">iostream</text>
</a>
</g>
</g>
<!-- Node1&#45;&gt;Node8 -->
<g id="edge7" class="edge">
<title>Node1&#45;&gt;Node8</title>
<path fill="none" stroke="midnightblue" d="M220,-112.08C220,-105.01 220,-94.86 220,-85.99"/>
<polygon fill="midnightblue" stroke="midnightblue" points="223.5,-85.75 220,-75.75 216.5,-85.75 223.5,-85.75"/>
</g>
<!-- Node9 -->
<g id="node9" class="node">
<title>Node9</title>
<g id="a_node9"><a xlink:title=" ">
<polygon fill="white" stroke="#bfbfbf" points="268,-56.5 268,-75.5 324,-75.5 324,-56.5 268,-56.5"/>
<text text-anchor="middle" x="296" y="-63.5" font-family="Helvetica,sans-Serif" font-size="10.00">iomanip</text>
</a>
</g>
</g>
<!-- Node1&#45;&gt;Node9 -->
<g id="edge8" class="edge">
<title>Node1&#45;&gt;Node9</title>
<path fill="none" stroke="midnightblue" d="M232.21,-112.32C243.78,-104.11 261.38,-91.6 275.16,-81.81"/>
<polygon fill="midnightblue" stroke="midnightblue" points="277.44,-84.48 283.57,-75.83 273.39,-78.77 277.44,-84.48"/>
</g>
<!-- Node10 -->
<g id="node10" class="node">
<title>Node10</title>
<g id="a_node10"><a xlink:title=" ">
<polygon fill="white" stroke="#bfbfbf" points="342,-56.5 342,-75.5 386,-75.5 386,-56.5 342,-56.5"/>
<text text-anchor="middle" x="364" y="-63.5" font-family="Helvetica,sans-Serif" font-size="10.00">limits</text>
</a>
</g>
</g>
<!-- Node1&#45;&gt;Node10 -->
<g id="edge9" class="edge">
<title>Node1&#45;&gt;Node10</title>
<path fill="none" stroke="midnightblue" d="M242.82,-112.44C266.97,-103.39 305.28,-89.02 332.35,-78.87"/>
<polygon fill="midnightblue" stroke="midnightblue" points="333.63,-82.13 341.76,-75.34 331.17,-75.57 333.63,-82.13"/>
</g>
<!-- Node2&#45;&gt;Node3 -->
<g id="edge2" class="edge">
<title>Node2&#45;&gt;Node3</title>
<path fill="none" stroke="midnightblue" d="M117.09,-56.44C98.75,-47.68 69.99,-33.94 48.91,-23.86"/>
<polygon fill="midnightblue" stroke="midnightblue" points="50.35,-20.67 39.82,-19.52 47.33,-26.99 50.35,-20.67"/>
</g>
<!-- Node4 -->
<g id="node4" class="node">
<title>Node4</title>
<g id="a_node4"><a xlink:title=" ">
<polygon fill="white" stroke="#bfbfbf" points="62.5,-0.5 62.5,-19.5 109.5,-19.5 109.5,-0.5 62.5,-0.5"/>
<text text-anchor="middle" x="86" y="-7.5" font-family="Helvetica,sans-Serif" font-size="10.00">vector</text>
</a>
</g>
</g>
<!-- Node2&#45;&gt;Node4 -->
<g id="edge3" class="edge">
<title>Node2&#45;&gt;Node4</title>
<path fill="none" stroke="midnightblue" d="M126.91,-56.08C119.84,-48.3 109.41,-36.8 100.85,-27.37"/>
<polygon fill="midnightblue" stroke="midnightblue" points="103.25,-24.8 93.94,-19.75 98.07,-29.51 103.25,-24.8"/>
</g>
<!-- Node5 -->
<g id="node5" class="node">
<title>Node5</title>
<g id="a_node5"><a xlink:title=" ">
<polygon fill="white" stroke="#bfbfbf" points="127.5,-0.5 127.5,-19.5 174.5,-19.5 174.5,-0.5 127.5,-0.5"/>
<text text-anchor="middle" x="151" y="-7.5" font-family="Helvetica,sans-Serif" font-size="10.00">cmath</text>
</a>
</g>
</g>
<!-- Node2&#45;&gt;Node5 -->
<g id="edge4" class="edge">
<title>Node2&#45;&gt;Node5</title>
<path fill="none" stroke="midnightblue" d="M137.64,-56.08C139.79,-48.85 142.88,-38.41 145.55,-29.4"/>
<polygon fill="midnightblue" stroke="midnightblue" points="148.92,-30.33 148.41,-19.75 142.21,-28.34 148.92,-30.33"/>
</g>
<!-- Node6 -->
<g id="node6" class="node">
<title>Node6</title>
<g id="a_node6"><a xlink:title=" ">
<polygon fill="white" stroke="#bfbfbf" points="193,-0.5 193,-19.5 251,-19.5 251,-0.5 193,-0.5"/>
<text text-anchor="middle" x="222" y="-7.5" font-family="Helvetica,sans-Serif" font-size="10.00">memory</text>
</a>
</g>
</g>
<!-- Node2&#45;&gt;Node6 -->
<g id="edge5" class="edge">
<title>Node2&#45;&gt;Node6</title>
<path fill="none" stroke="midnightblue" d="M148.98,-56.32C162.55,-47.9 183.38,-34.97 199.32,-25.07"/>
<polygon fill="midnightblue" stroke="midnightblue" points="201.41,-27.9 208.06,-19.65 197.71,-21.95 201.41,-27.9"/>
</g>
<!-- Node7 -->
<g id="node7" class="node">
<title>Node7</title>
<g id="a_node7"><a xlink:title=" ">
<polygon fill="white" stroke="#bfbfbf" points="269.5,-0.5 269.5,-19.5 334.5,-19.5 334.5,-0.5 269.5,-0.5"/>
<text text-anchor="middle" x="302" y="-7.5" font-family="Helvetica,sans-Serif" font-size="10.00">functional</text>
</a>
</g>
</g>
<!-- Node2&#45;&gt;Node7 -->
<g id="edge6" class="edge">
<title>Node2&#45;&gt;Node7</title>
<path fill="none" stroke="midnightblue" d="M161.46,-56.44C189.68,-47.32 234.54,-32.81 265.97,-22.65"/>
<polygon fill="midnightblue" stroke="midnightblue" points="267.22,-25.92 275.66,-19.52 265.07,-19.26 267.22,-25.92"/>
</g>
</g>
</svg>
